<?xml version="1.0" encoding="UTF-8"?>
<svg width="200px" height="120px" viewBox="0 0 200 120" version="1.1" xmlns="http://www.w3.org/2000/svg" xmlns:xlink="http://www.w3.org/1999/xlink">
    <!-- Generator: Sketch 56.3 (81716) - https://sketch.com -->
    <title>large/bitcoin-4</title>
    <desc>Created with Sketch.</desc>
    <g id="Square" stroke="none" stroke-width="1" fill="none" fill-rule="evenodd">
        <g id="Large" transform="translate(-32.000000, -3196.000000)">
            <g id="large/bitcoin-4" transform="translate(32.000000, 3196.000000)">
                <rect id="Background" fill="#FFFFFF" x="0" y="0" width="200" height="120"></rect>
                <g id="Logo" transform="translate(20.000000, 36.000000)">
                    <g id="bitcoin">
                        <g id="Logo-Mark">
                            <path d="M43.440463,27.0054437 C40.4950852,38.6430174 28.5295742,45.7254888 16.7142953,42.823393 C4.90384036,39.9219761 -2.28594118,28.1343759 0.660814868,16.497481 C3.60481437,4.85854956 15.5703254,-2.22460066 27.3821586,0.676816252 C39.1967484,3.57823316 46.3858408,15.3671911 43.440463,27.0054437 L43.440463,27.0054437 Z" id="coin" fill="#F89C2E"></path>
                            <path d="M31.7699032,18.6555541 C32.2088844,15.7649988 29.9746975,14.2111047 26.9197467,13.1744965 L27.9107278,9.25887348 L25.4911627,8.66487727 L24.5263688,12.4773147 C23.890294,12.3211785 23.2369908,12.1738675 22.5878224,12.0279141 L23.5595076,8.19035916 L21.1413207,7.59636295 L20.1496505,11.5106283 C19.6231487,11.3925079 19.1062949,11.2757452 18.6046021,11.1528728 L18.6073586,11.1406535 L15.2705502,10.3199204 L14.6268949,12.8656185 C14.6268949,12.8656185 16.4221006,13.2708936 16.384198,13.2960111 C17.3641528,13.5370039 17.5412614,14.1758044 17.5116285,14.6822286 L16.3828197,19.1429704 C16.4503552,19.1599417 16.5378758,19.1843804 16.6343552,19.2223962 C16.553726,19.2027095 16.4675837,19.1809862 16.3786848,19.1599417 L14.7964229,25.4087818 C14.6765129,25.7020463 14.3726028,26.1419429 13.6875992,25.9749451 C13.711719,26.0095666 11.9289178,25.5425158 11.9289178,25.5425158 L10.7277495,28.2708253 L13.8764231,29.0440386 C14.4621908,29.1886343 15.0362431,29.3400185 15.6013367,29.4825776 L14.6000185,33.4430049 L17.0168271,34.0370011 L18.0084973,30.1186626 C18.6686919,30.2951644 19.3095907,30.458089 19.9367067,30.6115098 L18.9484822,34.5115192 L21.3680473,35.1055154 L22.3693655,31.1525555 C26.4952374,31.9216957 29.5977388,31.61146 30.9036561,27.935472 C31.9559706,24.9756738 30.8512816,23.2683589 28.6804955,22.1550403 C30.2613791,21.7959272 31.4522104,20.7715383 31.7699032,18.6555541 L31.7699032,18.6555541 Z M26.2416345,26.2919694 C25.4939192,29.2517676 20.4349538,27.6517115 18.7948043,27.2505095 L20.1234632,22.0036561 C21.7636128,22.4068947 27.0231175,23.2052256 26.2416345,26.2919694 L26.2416345,26.2919694 Z M26.9900388,18.6127864 C26.3077918,21.3051166 22.0971558,19.9372282 20.7312834,19.6018749 L21.9358974,14.8431167 C23.3017698,15.17847 27.7005406,15.8043723 26.9900388,18.6127864 L26.9900388,18.6127864 Z" id="symbol-copy" fill="#FFFFFF"></path>
                        </g>
                        <g id="Text" transform="translate(52.925834, 7.859486)" fill="#000000">
                            <path d="M12.6237406,8.57640062 C13.769948,8.57640062 14.7602358,8.77973648 15.5923956,9.17897443 C16.4285307,9.5821479 17.1184636,10.1252514 17.6719117,10.808285 C18.217851,11.4948169 18.6242135,12.2972283 18.8865823,13.2168311 C19.1471844,14.1390576 19.2779271,15.1303746 19.2779271,16.1916567 C19.2779271,17.8218418 18.9762471,19.361947 18.367145,20.8137213 C17.7580429,22.2676821 16.9316252,23.5288017 15.880383,24.604514 C14.8300241,25.6789145 13.589735,26.5259286 12.1595156,27.1516783 C10.7315046,27.7778653 9.17893467,28.0909588 7.51196487,28.0909588 C7.29641605,28.0909588 6.91743881,28.0848369 6.38210034,28.0739049 C5.84676186,28.0629728 5.23147598,28.0083127 4.54242646,27.9160463 C3.84895995,27.8202816 3.11574059,27.6786025 2.34144328,27.4888223 C1.56758766,27.3025404 0.832601504,27.0414834 0.140460095,26.7100241 L6.32953823,0.964642827 L11.8728533,0.114130452 L9.65685235,9.2502513 C10.1312364,9.03860709 10.6091541,8.87462655 11.0861884,8.75524872 C11.5636644,8.63762002 12.0760346,8.57640062 12.6237406,8.57640062 L12.6237406,8.57640062 Z M7.97398141,23.737385 C8.80879141,23.737385 9.59545628,23.5340491 10.3344177,23.1348112 C11.0755877,22.7351359 11.7151669,22.1955307 12.2509471,21.5234291 C12.7867273,20.8482666 13.2107578,20.0878342 13.5199467,19.2381964 C13.8291355,18.3885586 13.9854968,17.5021891 13.9854968,16.5799626 C13.9854968,15.4469664 13.7942414,14.5632206 13.4130556,13.9243525 C13.0318699,13.288108 12.3264775,12.968018 11.3021789,12.968018 C10.9664881,12.968018 10.5340654,13.0314238 9.99784353,13.1446797 C9.45985486,13.2649321 8.9784036,13.5146198 8.54686425,13.8902445 L6.18731134,23.5926448 C6.32953823,23.6175699 6.45542227,23.6411831 6.56275499,23.6634844 C6.66787921,23.6875349 6.78404589,23.7045889 6.89977087,23.7163955 C7.02212133,23.7299512 7.16213973,23.7369477 7.33131022,23.7369477 C7.50048071,23.7369477 7.71205425,23.737385 7.97398141,23.737385 L7.97398141,23.737385 Z" id="Shape"></path>
                            <path d="M25.026632,27.5968308 L19.7337599,27.5968308 L24.2050729,8.96907934 L29.535931,8.96907934 L25.0283987,27.5959563 L25.026632,27.5968308 Z M27.6030588,6.7004633 C26.8640973,6.7004633 26.1940409,6.48269715 25.5995148,6.04629029 C25.00013,5.61250711 24.7033087,4.94477837 24.7033087,4.0448532 C24.7033087,3.54985062 24.8048994,3.08545775 25.0063138,2.64730176 C25.2108202,2.21002033 25.4780477,1.83352102 25.8128551,1.51343102 C26.1472208,1.1959647 26.5345903,0.942341474 26.9745219,0.751249491 C27.4171038,0.563218478 27.8879543,0.469202971 28.3897237,0.469202971 C29.1282434,0.469202971 29.7947663,0.686969121 30.3915009,1.12337599 C30.9860269,1.56196926 31.2850567,2.22969799 31.2850567,3.12481307 C31.2850567,3.62156478 31.1839078,4.08770678 30.9807265,4.5249882 C30.7788704,4.96226963 30.5116428,5.33876894 30.1768354,5.65885894 C29.8451199,5.97676254 29.4542168,6.2295112 29.0151686,6.41885406 C28.5721451,6.60994605 28.1030614,6.7004633 27.6030588,6.7004633 L27.6030588,6.7004633 Z" id="Shape-Copy"></path>
                            <path d="M34.174206,4.32908612 L39.7197296,3.47857375 L38.3579734,8.96907934 L44.2970502,8.96907934 L43.2246065,13.2885453 L37.3213072,13.2885453 L35.7488609,19.8040385 C35.6039838,20.3471421 35.5218279,20.8543885 35.4988596,21.3257779 C35.4727994,21.7993537 35.5333121,22.2060254 35.6764223,22.5484168 C35.8186492,22.8916827 36.0743926,23.1562379 36.4454193,23.3433944 C36.8146791,23.5336118 37.3433921,23.6293765 38.0368586,23.6293765 C38.6079747,23.6293765 39.1645147,23.5755908 39.7025034,23.4688942 C40.2374001,23.3639466 40.7793641,23.2178946 41.3279535,23.0268026 L41.7228319,27.0655339 C41.0072805,27.3252791 40.2325414,27.5487299 39.3977314,27.7367609 C38.5615964,27.9274156 37.5717502,28.0192447 36.4277513,28.0192447 C34.7828665,28.0192447 33.5076831,27.7774281 32.5991095,27.2959812 C31.691861,26.8110361 31.0505149,26.1485548 30.666679,25.309849 C30.2881434,24.4742042 30.1189729,23.5108732 30.1662347,22.4255407 C30.2152632,21.3375845 30.3809001,20.1940936 30.666679,18.9898205 L34.1781813,4.3203405 L34.174206,4.32908612 Z" id="Shape-Copy-2"></path>
                            <path d="M44.0638335,20.1599856 C44.0638335,18.5556001 44.3262023,17.0426063 44.8504983,15.6262518 C45.3739109,14.2085854 46.1278901,12.9688926 47.1062521,11.9049868 C48.0810805,10.8463285 49.2688075,10.0076227 50.666783,9.39193048 C52.058133,8.77973648 53.6160033,8.4710158 55.332885,8.4710158 C56.4075372,8.4710158 57.3673479,8.57159053 58.2118753,8.77317726 C59.0599362,8.97651313 59.8271663,9.23931926 60.5210745,9.56902946 L58.6950933,13.6794749 C58.218059,13.4879456 57.7229151,13.319155 57.2109867,13.1661065 C56.6986165,13.009997 56.0731715,12.9347846 55.3333267,12.9347846 C53.5660914,12.9347846 52.1689993,13.5377957 51.1292412,14.7398823 C50.0934585,15.9428435 49.5718126,17.5620967 49.5718126,19.5932689 C49.5718126,20.7971047 49.8341815,21.7704931 50.360686,22.5151834 C50.8845403,23.2598736 51.8523015,23.630251 53.2573442,23.630251 C53.9508107,23.630251 54.6199838,23.5585369 55.2608882,23.4186068 C55.9066512,23.2769276 56.4768839,23.0985168 56.979095,22.8877472 L57.3744151,27.101391 C56.7048003,27.3585125 55.9662805,27.5907089 55.1562056,27.7940448 C54.344364,27.9903841 53.3779278,28.0922707 52.257339,28.0922707 C50.778091,28.0922707 49.525876,27.8780028 48.5015774,27.4560262 C47.4768371,27.0274904 46.6301012,26.4585873 45.9631366,25.7379475 C45.2926384,25.0155586 44.8111872,24.1720427 44.5134824,23.2039016 C44.2157777,22.2366351 44.0638335,21.2203931 44.0638335,20.1599856 L44.0638335,20.1599856 Z" id="Shape-Copy-3"></path>
                            <path d="M67.5842738,28.0909588 C66.3205747,28.0909588 65.2229541,27.9003041 64.2918539,27.5229303 C63.3634038,27.1455564 62.5944069,26.6160086 61.9861882,25.9294768 C61.3770861,25.2464432 60.9212533,24.4370352 60.6089725,23.504314 C60.2966918,22.57203 60.1465143,21.5396085 60.1465143,20.4083615 C60.1465143,18.9893832 60.3766392,17.5708423 60.8417476,16.1562369 C61.3046475,14.7385705 61.9914886,13.4647697 62.9005039,12.3326481 C63.802452,11.1987773 64.9150903,10.2717407 66.2251678,9.54891451 C67.5339202,8.83089841 69.0392284,8.46970395 70.7300499,8.46970395 C71.9707807,8.46970395 73.0626592,8.66079594 74.0065687,9.03816981 C74.9460612,9.41466912 75.7199169,9.94858974 76.3316692,10.6316233 C76.936796,11.3181552 77.396604,12.1240648 77.7057929,13.058098 C78.0171903,13.9886328 78.1709013,15.023678 78.1709013,16.1557996 C78.1709013,17.570405 77.9438684,18.988946 77.493336,20.4079242 C77.0423619,21.8199059 76.3731888,23.0967677 75.489792,24.231513 C74.608162,25.3636346 73.5056827,26.2902339 72.1814709,27.0099992 C70.8590259,27.7297644 69.325449,28.0909588 67.5842738,28.0909588 L67.5842738,28.0909588 Z M70.2300473,12.9343473 C69.4451492,12.9343473 68.751241,13.1599845 68.1571567,13.6055743 C67.5608638,14.0564115 67.0599778,14.6231282 66.6562655,15.3065991 C66.2481361,15.9931309 65.9455727,16.7417567 65.7410664,17.5555374 C65.5383268,18.3710673 65.4389447,19.1419945 65.4389447,19.8744408 C65.4389447,21.0564125 65.6315252,21.9768899 66.0100607,22.6393713 C66.3938966,23.2983544 67.0833878,23.6298137 68.0856015,23.6298137 C68.8731498,23.6298137 69.5635244,23.4059256 70.1611424,22.9555258 C70.7539016,22.5081869 71.2552293,21.9410329 71.6620336,21.2562502 C72.0675127,20.5732166 72.3727263,19.8224044 72.5772327,19.0073118 C72.777322,18.1944056 72.8793544,17.4191056 72.8793544,16.6879711 C72.8793544,15.5090604 72.6876573,14.5863965 72.3055881,13.9247898 C71.9239607,13.2658066 71.2313776,12.9343473 70.2300473,12.9343473 L70.2300473,12.9343473 Z" id="Shape-Copy-4"></path>
                            <path d="M83.940366,27.5968308 L78.6413101,27.5968308 L83.1126232,8.96995391 L88.4461315,8.96995391 L83.940366,27.5968308 L83.940366,27.5968308 Z M86.5128175,6.7004633 C85.7742978,6.7004633 85.104683,6.48269715 84.5110403,6.04629029 C83.9147475,5.61250711 83.615276,4.94477837 83.615276,4.0448532 C83.615276,3.54985062 83.7181917,3.08545775 83.9200479,2.64730176 C84.121904,2.21002033 84.3908984,1.83352102 84.7257058,1.51343102 C85.0583047,1.1959647 85.4492078,0.942341474 85.888256,0.751249491 C86.3281876,0.563218478 86.7990381,0.469202971 87.2990407,0.469202971 C88.0393272,0.469202971 88.7080586,0.686969121 89.3034681,1.12337599 C89.8993192,1.56196926 90.2001159,2.22969799 90.2001159,3.12481307 C90.2001159,3.62156478 90.0932248,4.08770678 89.8931355,4.5249882 C89.6930461,4.96226963 89.4240518,5.33876894 89.0905695,5.65885894 C88.7548787,5.97676254 88.3688342,6.2295112 87.9289026,6.41885406 C87.4854374,6.60994605 87.0154703,6.7004633 86.5128175,6.7004633 L86.5128175,6.7004633 Z" id="Shape-Copy-5"></path>
                            <path d="M92.261964,9.81784259 C92.6639096,9.70152573 93.1126752,9.56159568 93.6007519,9.40942174 C94.0905955,9.2572478 94.6378598,9.11556862 95.2491704,8.98788244 C95.8538555,8.85626073 96.5362796,8.74956407 97.2867252,8.66691788 C98.0371708,8.58252256 98.8922989,8.54141811 99.8423922,8.54141811 C102.63481,8.54141811 104.559731,9.34645321 105.622458,10.9517133 C106.684301,12.5569734 106.868047,14.7538753 106.178998,17.5384835 L103.743473,27.5959563 L98.4139395,27.5959563 L100.774376,17.7501277 C100.918369,17.13531 101.031444,16.5410445 101.114925,15.9603348 C101.19929,15.3848724 101.194431,14.877626 101.095932,14.4385954 C101.00185,14.0048123 100.780118,13.6497397 100.436035,13.3746897 C100.086651,13.1040125 99.5588218,12.968018 98.8428287,12.968018 C98.152454,12.968018 97.4501536,13.0414813 96.7332771,13.1831605 L93.2628526,27.595519 L87.9311111,27.595519 L92.261964,9.81784259 L92.261964,9.81784259 Z" id="Shape-Copy-6"></path>
                        </g>
                    </g>
                </g>
            </g>
        </g>
    </g>
</svg>