<?xml version="1.0" encoding="UTF-8"?>
<svg width="200px" height="120px" viewBox="0 0 200 120" version="1.1" xmlns="http://www.w3.org/2000/svg" xmlns:xlink="http://www.w3.org/1999/xlink">
    <!-- Generator: Sketch 56.3 (81716) - https://sketch.com -->
    <title>large/delta</title>
    <desc>Created with Sketch.</desc>
    <defs>
        <rect id="path-1" x="0" y="0" width="200" height="120"></rect>
    </defs>
    <g id="Square" stroke="none" stroke-width="1" fill="none" fill-rule="evenodd">
        <g id="Large" transform="translate(-32.000000, -4116.000000)">
            <g id="large/delta" transform="translate(32.000000, 4116.000000)">
                <mask id="mask-2" fill="white">
                    <use xlink:href="#path-1"></use>
                </mask>
                <use id="Background" fill="#FFFFFF" xlink:href="#path-1"></use>
                <polygon id="Edge" fill="#005DA9" mask="url(#mask-2)" points="12 0 200 0 200 120"></polygon>
                <g id="Logo" mask="url(#mask-2)">
                    <g transform="translate(8.000000, 12.000000)" id="delta">
                        <g>
                            <polygon id="Shape" fill="#F6A500" points="1.86721912 48.4159744 98.3395697 48.4159744 98.3395697 107.672971"></polygon>
                            <polygon id="Shape" fill="#E20613" points="0.298326693 77.6817891 48.5346932 77.6817891 48.5346932 107.717827"></polygon>
                            <path d="M80.5761275,23.5886262 L90.2227888,23.5886262 C97.4575936,23.5886262 101.477355,19.5297125 101.477355,12.2242812 C101.477355,4.91808307 97.4575936,0.859936102 90.2227888,0.859936102 L80.5761275,0.859936102 L80.5761275,23.5886262 L80.5761275,23.5886262 Z M86.2022629,5.73009585 L89.4192191,5.73009585 C93.4382151,5.73009585 95.8496892,7.35335463 95.8496892,12.2242812 C95.8496892,16.2828115 93.4378327,17.9064537 89.4192191,17.9064537 L86.2022629,17.9064537 L86.2022629,5.73009585 L86.2022629,5.73009585 Z" id="Shape" fill="#FFFFFF"></path>
                            <polygon id="Shape" fill="#FFFFFF" points="106.300685 23.5886262 124.791586 23.5886262 124.791586 17.9064537 111.927968 17.9064537 111.927968 13.8471565 123.182916 13.8471565 123.182916 8.97699681 111.927968 8.97699681 111.927968 5.73009585 123.987251 5.73009585 123.987251 0.859552716 106.300685 0.859552716"></polygon>
                            <polygon id="Shape" fill="#FFFFFF" points="129.615299 23.5886262 145.69396 23.5886262 145.69396 17.9064537 135.242964 17.9064537 135.242964 0.859552716 129.615299 0.859552716"></polygon>
                            <polygon id="Shape" fill="#FFFFFF" points="164.184096 0.859552716 144.89039 0.859552716 144.89039 5.73009585 151.321243 5.73009585 151.321243 23.5886262 157.753243 23.5886262 157.753243 5.73009585 164.184096 5.73009585"></polygon>
                            <path d="M174.635474,7.35335463 L174.635474,7.35335463 L177.046948,14.6595527 L172.223618,14.6595527 L174.635474,7.35335463 L174.635474,7.35335463 Z M163.380526,23.5886262 L169.007809,23.5886262 L170.615713,19.5297125 L178.65447,19.5297125 L180.263522,23.5886262 L185.89157,23.5886262 L177.851283,0.859936102 L171.419283,0.859936102 L163.380526,23.5886262 L163.380526,23.5886262 Z" id="Shape" fill="#FFFFFF"></path>
                        </g>
                    </g>
                </g>
            </g>
        </g>
    </g>
</svg>