<?xml version="1.0" encoding="UTF-8"?>
<svg width="476px" height="120px" viewBox="0 0 476 120" version="1.1" xmlns="http://www.w3.org/2000/svg" xmlns:xlink="http://www.w3.org/1999/xlink">
    <!-- Generator: Sketch 56.3 (81716) - https://sketch.com -->
    <title>large/paypal2</title>
    <desc>Created with Sketch.</desc>
    <defs>
        <rect id="path-1" x="0" y="0" width="476" height="120"></rect>
    </defs>
    <g id="Square" stroke="none" stroke-width="1" fill="none" fill-rule="evenodd">
        <g id="Large" transform="translate(-32.000000, -1720.000000)">
            <g id="large/paypal2" transform="translate(32.000000, 1720.000000)">
                <mask id="mask-2" fill="white">
                    <use xlink:href="#path-1"></use>
                </mask>
                <rect stroke-opacity="0.2" stroke="#000000" stroke-width="4" x="2" y="2" width="472" height="116"></rect>
                <polygon id="Rectangle" fill="#00308B" mask="url(#mask-2)" points="0 0 204 0 188 120 0 120"></polygon>
                <text id="Now" mask="url(#mask-2)" font-family="Gilroy-Semibold, Gilroy" font-size="32" font-weight="500" line-spacing="28" letter-spacing="-0.799999952" fill="#FFFFFF">
                    <tspan x="105" y="53">Now</tspan>
                </text>
                <text id="Accepting" mask="url(#mask-2)" font-family="Gilroy-Semibold, Gilroy" font-size="32" font-weight="500" line-spacing="28" letter-spacing="-0.799999952" fill="#FFFFFF">
                    <tspan x="24" y="81">Accepting</tspan>
                </text>
                <g id="Logo" mask="url(#mask-2)">
                    <g transform="translate(228.000000, 32.000000)">
                        <path d="M37.889036,4.43736414 C35.4575276,1.72895378 31.0622203,0.567800914 25.4395388,0.567800914 L9.12054436,0.567800914 C7.9701533,0.567800914 6.9926114,1.38543423 6.81249967,2.49406552 L0.0176393421,44.6092788 C-0.117444457,45.4396877 0.54054437,46.1920239 1.40188514,46.1920239 L11.476522,46.1920239 L14.0068013,30.5079431 L13.9283656,30.9990909 C14.1084773,29.8904596 15.0787566,29.0728263 16.2276952,29.0728263 L21.0151812,29.0728263 C30.4202092,29.0728263 37.784455,25.3395353 39.9356282,14.5399619 C39.9995388,14.2205739 40.0547343,13.9097029 40.1026673,13.6059294 C39.8310472,13.4653987 39.8310472,13.4653987 40.1026673,13.6059294 C40.7432259,9.61428898 40.0980192,6.8973616 37.889036,4.43736414" id="path14499" fill="#003087"></path>
                        <path d="M141.977349,24.3519932 L136.555114,24.3519932 C136.036567,24.3519932 135.551427,24.6032451 135.260924,25.0234178 L127.780477,35.7889231 L124.611092,25.4435905 C124.412097,24.7962975 123.802042,24.3519932 123.110645,24.3519932 L117.781371,24.3519932 C117.137907,24.3519932 116.684723,24.9708962 116.892433,25.5656677 L122.862265,42.6933823 L117.246846,50.4367672 C116.806734,51.0443142 117.251494,51.8846596 118.013773,51.8846596 L123.430198,51.8846596 C123.942935,51.8846596 124.423718,51.6390857 124.717125,51.22743 L142.748634,25.7927881 C143.18003,25.1838216 142.735503,24.3519932 141.977349,24.3519932 M105.727399,34.6134276 C105.205947,37.6256115 102.759913,39.6484022 99.6384608,39.6484022 C98.0741032,39.6484022 96.8205837,39.1558349 96.0158909,38.2246414 C95.2184608,37.301965 94.9177904,35.9860863 95.1705278,34.5225795 C95.6556675,31.5359467 98.1423714,29.4492783 101.215891,29.4492783 C102.748293,29.4492783 103.991645,29.9461041 104.812316,30.8858146 C105.638796,31.8326227 105.964159,33.1555988 105.727399,34.6134276 M113.245612,24.3518456 L107.850975,24.3518456 C107.389075,24.3518456 106.995444,24.6797506 106.922818,25.1268939 L106.686059,26.6003372 L106.309857,26.0666044 C105.140584,24.4100452 102.536226,23.8550198 99.9362261,23.8550198 C93.9765613,23.8550198 88.8854999,28.2696719 87.8948854,34.4601214 C87.3792429,37.5489584 88.1113099,40.5001036 89.9037122,42.5598014 C91.5494105,44.451998 93.8981256,45.2398217 96.69712,45.2398217 C101.502036,45.2398217 104.165947,42.2247989 104.165947,42.2247989 L103.924829,43.6897252 C103.834774,44.2461701 104.274885,44.7500934 104.852986,44.7500934 L109.710193,44.7500934 C110.481478,44.7500934 111.136561,44.2035851 111.25712,43.4597659 L114.173768,25.4122138 C114.263824,24.8557689 113.82226,24.3518456 113.245612,24.3518456 M80.8729913,24.4784652 C80.2571254,28.4303596 77.1690807,28.4303596 74.1812594,28.4303596 L72.4818181,28.4303596 L73.6743321,21.0517867 C73.7454472,20.606063 74.1391365,20.2781579 74.601036,20.2781579 L75.381036,20.2781579 C77.4145555,20.2781579 79.334779,20.2781579 80.3253935,21.4095013 C80.9180192,22.0866039 81.0966784,23.0916115 80.8729913,24.4784652 M79.5729913,14.1672006 L68.307293,14.1672006 C67.536008,14.1672006 66.8809242,14.7151285 66.7603656,15.4589477 L62.2052818,43.6900091 C62.1152259,44.246454 62.5553377,44.7503773 63.1319857,44.7503773 L68.5120974,44.7503773 C69.2819298,44.7503773 69.9370136,44.2024495 70.0575723,43.4600498 L71.2878516,35.8430005 C71.4069578,35.0991813 72.0634941,34.5512534 72.8333265,34.5512534 L76.3977958,34.5512534 C83.8186896,34.5512534 88.1021533,31.0422438 89.2205891,24.0852631 C89.7246114,21.0446892 89.2409242,18.6542473 87.7840527,16.9806541 C86.1819298,15.1409792 83.342265,14.1672006 79.5729913,14.1672006" id="path14519" fill="#002F86"></path>
                        <path d="M199.956628,14.9429643 L195.333276,43.6907246 C195.243221,44.2471695 195.683332,44.7510928 196.25998,44.7510928 L200.91093,44.7510928 C201.680762,44.7510928 202.337299,44.2031649 202.456405,43.4593457 L207.015846,15.2282842 C207.105902,14.6718393 206.66579,14.167916 206.08769,14.167916 L200.884785,14.167916 C200.421433,14.167916 200.027802,14.4958211 199.956628,14.9429643 M186.080181,34.6134276 C185.558729,37.6256115 183.112695,39.6484022 179.991243,39.6484022 C178.426885,39.6484022 177.173366,39.1558349 176.368673,38.2246414 C175.56979,37.301965 175.270573,35.9860863 175.52331,34.5225795 C176.00845,31.5359467 178.495154,29.4492783 181.568673,29.4492783 C183.101075,29.4492783 184.344427,29.9461041 185.165098,30.8858146 C185.991578,31.8326227 186.316941,33.1555988 186.080181,34.6134276 M193.598394,24.3518456 L188.203757,24.3518456 C187.741857,24.3518456 187.348226,24.6797506 187.2756,25.1268939 L187.038841,26.6003372 L186.661187,26.0666044 C185.493366,24.4100452 182.889008,23.8550198 180.289008,23.8550198 C174.329343,23.8550198 169.238282,28.2696719 168.247667,34.4601214 C167.732025,37.5489584 168.464092,40.5001036 170.256494,42.5598014 C171.902193,44.451998 174.250908,45.2398217 177.049902,45.2398217 C181.854818,45.2398217 184.518729,42.2247989 184.518729,42.2247989 L184.277612,43.6897252 C184.187556,44.2461701 184.627667,44.7500934 185.205768,44.7500934 L190.062975,44.7500934 C190.83426,44.7500934 191.489343,44.2035851 191.609902,43.4597659 L194.52655,25.4122138 C194.616606,24.8557689 194.175042,24.3518456 193.598394,24.3518456 M161.225634,24.4784652 C160.609768,28.4303596 157.521723,28.4303596 154.533902,28.4303596 L152.834461,28.4303596 L154.026975,21.0517867 C154.098206,20.606063 154.491779,20.2781579 154.953679,20.2781579 L155.733679,20.2781579 C157.767198,20.2781579 159.687422,20.2781579 160.678036,21.4095013 C161.270662,22.0866039 161.449321,23.0916115 161.225634,24.4784652 M159.925634,14.1672006 L148.659936,14.1672006 C147.888651,14.1672006 147.233567,14.7151285 147.113008,15.4589477 L142.557924,43.6900091 C142.467869,44.246454 142.909433,44.7503773 143.484628,44.7503773 L149.265634,44.7503773 C149.804517,44.7503773 150.263511,44.3671117 150.347757,43.8475739 L151.640494,35.8430005 C151.7596,35.0991813 152.416137,34.5512534 153.185969,34.5512534 L156.750438,34.5512534 C164.171332,34.5512534 168.454796,31.0422438 169.573232,24.0852631 C170.077254,21.0446892 169.593567,18.6542473 168.136695,16.9806541 C166.534573,15.1409792 163.694908,14.1672006 159.925634,14.1672006" id="path14523" fill="#009CDE"></path>
                        <path d="M37.889036,4.43736414 C35.4575276,1.72895378 31.0622203,0.567800914 25.4395388,0.567800914 L9.12054436,0.567800914 C7.9701533,0.567800914 6.9926114,1.38543423 6.81249967,2.49406552 L0.0176393421,44.6092788 C-0.117444457,45.4396877 0.54054437,46.1920239 1.40188514,46.1920239 L11.476522,46.1920239 L14.0068013,30.5079431 L13.9283656,30.9990909 C14.1084773,29.8904596 15.0787566,29.0728263 16.2276952,29.0728263 L21.0151812,29.0728263 C30.4202092,29.0728263 37.784455,25.3395353 39.9356282,14.5399619 C39.9995388,14.2205739 40.0547343,13.9097029 40.1026673,13.6059294 C39.8310472,13.4653987 39.8310472,13.4653987 40.1026673,13.6059294 C40.7432259,9.61428898 40.0980192,6.8973616 37.889036,4.43736414" id="path14527" fill="#003087"></path>
                        <path d="M16.726198,13.6588825 C16.833684,12.9917164 17.2723432,12.4452081 17.8620639,12.1684051 C18.130779,12.0434889 18.4299969,11.9739333 18.7437399,11.9739333 L31.5374829,11.9739333 C33.052455,11.9739333 34.4657511,12.0704595 35.757036,12.2734483 C36.127427,12.3315911 36.486198,12.3983645 36.8348013,12.4750176 C37.1834047,12.5501945 37.5218404,12.6354214 37.8501086,12.7291085 C38.0142427,12.7758953 38.1754717,12.824272 38.3337958,12.8753173 C38.9685444,13.0825646 39.5597175,13.32388 40.1029578,13.6063609 C40.7435164,9.61330101 40.0983097,6.89779313 37.8893265,4.43779567 C35.4563656,1.72938531 31.0625108,0.568232443 25.4398293,0.568232443 L9.11938235,0.568232443 C7.9704438,0.568232443 6.9929019,1.38586576 6.81279017,2.49449704 L0.017929844,44.6082908 C-0.117153955,45.4401192 0.540834872,46.1910359 1.40072313,46.1910359 L11.4768125,46.1910359 L14.0070918,30.5069551 L16.726198,13.6588825 L16.726198,13.6588825 Z" id="path14531" fill="#002F86"></path>
                        <path d="M40.1029578,13.6059294 L40.1029578,13.6059294 C40.0535723,13.9111224 39.9997712,14.2205739 39.9359187,14.5399619 C37.7847455,25.3381158 30.4204997,29.0728263 21.0154717,29.0728263 L16.2265332,29.0728263 C15.0775946,29.0728263 14.1073153,29.8904596 13.9286561,30.9990909 L11.4768125,46.1906044 L10.7810583,50.5002133 C10.6634047,51.2269985 11.2386002,51.8856475 11.9910025,51.8856475 L20.4838516,51.8856475 C21.4889913,51.8856475 22.344522,51.1702184 22.5013935,50.2006983 L22.5842449,49.7776866 L24.1849153,39.8638827 L24.2881019,39.3159548 C24.4449734,38.3464347 25.3005041,37.6310056 26.3056438,37.6310056 L27.5765935,37.6310056 C35.8036326,37.6310056 42.2455321,34.3647308 44.1279902,24.9179431 C44.9138002,20.9703073 44.5070963,17.674223 42.4285488,15.3590147 C41.7981578,14.6577806 41.0152527,14.0786237 40.103074,13.6059294" id="path14535" fill="#009CDE"></path>
                        <path d="M37.8505502,12.7285407 C37.522282,12.6348536 37.1838463,12.5496834 36.8352429,12.4744498 C36.4866396,12.3991594 36.1264161,12.3324996 35.7574775,12.2743 C34.4647401,12.0698917 33.0528965,11.9733655 31.536472,11.9733655 L18.7441815,11.9733655 C18.4289859,11.9733655 18.129768,12.0429779 17.8625055,12.1692568 C17.2713323,12.4460598 16.8341256,12.9911486 16.7266396,13.6597342 L14.0075334,30.5078068 L13.9290977,30.9989546 C14.1077569,29.8903234 15.0780362,29.07269 16.2269747,29.07269 L21.0159133,29.07269 C30.4209412,29.07269 37.785187,25.339399 39.9363602,14.5398256 C40.0002708,14.2204376 40.0540139,13.9109861 40.1033993,13.6057931 C39.5587066,13.3247317 38.9689859,13.0819968 38.3342373,12.876169 C38.1759133,12.8250669 38.0146842,12.7753275 37.8505502,12.7285407" id="path14539" fill="#012069"></path>
                    </g>
                </g>
            </g>
        </g>
    </g>
</svg>