<?xml version="1.0" encoding="UTF-8"?>
<svg width="200px" height="120px" viewBox="0 0 200 120" version="1.1" xmlns="http://www.w3.org/2000/svg" xmlns:xlink="http://www.w3.org/1999/xlink">
    <!-- Generator: Sketch 56.3 (81716) - https://sketch.com -->
    <title>large/amazon</title>
    <desc>Created with Sketch.</desc>
    <defs>
        <polygon id="path-1" points="0.07622745 0.0295384615 85.8031088 0.0295384615 85.8031088 39.9630769 0.07622745 39.9630769"></polygon>
    </defs>
    <g id="Rounded" stroke="none" stroke-width="1" fill="none" fill-rule="evenodd">
        <g id="Large" transform="translate(-32.000000, -2276.000000)">
            <g id="large/amazon" transform="translate(32.000000, 2276.000000)">
                <rect id="Background" fill="#F8CA4A" x="0" y="0" width="200" height="120" rx="8"></rect>
                <g id="Logo" transform="translate(20.000000, 20.000000)">
                    <g id="amazon-payments">
                        <g id="amazon" transform="translate(20.000000, 0.000000)">
                            <g id="Group-11" transform="translate(16.787565, 0.000000)">
                                <mask id="mask-2" fill="white">
                                    <use xlink:href="#path-1"></use>
                                </mask>
                                <g id="Clip-7"></g>
                                <path d="M57.5788601,32.2061538 C50.6157513,37.2910769 40.5170984,40 31.8211399,40 C19.6358549,40 8.66238342,35.5396923 0.358756477,28.1175385 C-0.294093264,27.5378462 0.286010363,26.7409231 1.06818653,27.1907692 C10.0339896,32.3532308 21.1112953,35.4566154 32.5529534,35.4566154 C40.2733679,35.4566154 48.7560622,33.8744615 56.5666321,30.5932308 C57.7442487,30.1021538 58.7316062,31.368 57.5788601,32.2061538" id="Fill-10" fill="#000000" mask="url(#mask-2)"></path>
                            </g>
                            <path d="M77.1045231,28.9572596 C76.2122951,27.8274134 71.2151967,28.4243365 68.9687718,28.690798 C68.2929169,28.7683365 68.1834868,28.1800288 68.7977873,27.7584903 C72.7857666,24.9855673 79.3167511,25.7849519 80.0771656,26.7117211 C80.8425542,27.6446442 79.875093,34.130798 76.139549,37.2231057 C75.5644194,37.7000288 75.017891,37.4446442 75.2703262,36.8175673 C76.1146785,34.7412596 77.9961293,30.0871057 77.1045231,28.9572596" id="Fill-12" fill="#000000"></path>
                            <path d="M69.0920207,8.30092308 L69.0920207,5.60861538 C69.0945078,5.19815385 69.4029016,4.92307692 69.7815544,4.92615385 L81.9780311,4.92307692 C82.3647668,4.92307692 82.6787565,5.20369231 82.6787565,5.60307692 L82.6787565,7.91815385 C82.6787565,8.30092308 82.3454922,8.80369231 81.759171,9.608 L75.4439378,18.5372308 C77.7879793,18.4818462 80.2725389,18.8258462 82.4014508,20.0141538 C82.8833161,20.2806154 83.0126425,20.6775385 83.0493264,21.0633846 L83.0493264,23.9415385 C83.0493264,24.3353846 82.6084974,24.7907692 82.1515026,24.5575385 C78.3966839,22.6092308 73.4132642,22.3926154 69.2630052,24.5827692 C68.8395855,24.8018462 68.3937824,24.352 68.3937824,23.9581538 L68.3937824,21.2215385 C68.3937824,20.7827692 68.4074611,20.0387692 68.8507772,19.3698462 L76.1701554,8.97846154 L69.7958549,8.97538462 C69.4084974,8.97538462 69.0945078,8.70092308 69.0920207,8.30092308" id="Fill-13" fill="#000000"></path>
                            <path d="M24.8928497,24.8523077 L21.1827979,24.8523077 C20.8265285,24.8301538 20.546114,24.5692308 20.5181347,24.2363077 L20.5181347,5.38769231 C20.5181347,5.00738462 20.8433161,4.70461538 21.2362694,4.70461538 L24.691399,4.70461538 C25.0557513,4.72430769 25.3417617,4.99569231 25.3672539,5.34030769 L25.3672539,7.79938462 L25.4344041,7.79938462 C26.334715,5.42092308 28.0308808,4.30769231 30.3220725,4.30769231 C32.6387565,4.30769231 34.0911917,5.42092308 35.1345078,7.79938462 C36.0292228,5.42092308 38.0735751,4.30769231 40.2553368,4.30769231 C41.814715,4.30769231 43.5108808,4.94338462 44.5541969,6.36984615 C45.7262176,7.95753846 45.4880829,10.2615385 45.4880829,12.2818462 L45.4855959,24.1723077 C45.4855959,24.5501538 45.1629016,24.8523077 44.7674611,24.8523077 L41.0654922,24.8523077 C40.693057,24.8301538 40.398342,24.5390769 40.398342,24.1753846 L40.398342,14.1858462 C40.398342,13.3895385 40.4654922,11.4104615 40.2976166,10.6553846 C40.0140933,9.38153846 39.1840415,9.02892308 38.1127461,9.02892308 C37.2124352,9.02892308 36.2760622,9.62276923 35.8943005,10.5778462 C35.5131606,11.5243077 35.5467358,13.112 35.5467358,14.1858462 L35.5467358,24.1723077 C35.5467358,24.5501538 35.2271503,24.8523077 34.8373057,24.8523077 L31.1272539,24.8523077 C30.7541969,24.8301538 30.4594819,24.5390769 30.4594819,24.1753846 L30.4594819,14.1858462 C30.4594819,12.0849231 30.8045596,8.98707692 28.171399,8.98707692 C25.5046632,8.98707692 25.6078756,12.0018462 25.6078756,14.1858462 L25.6078756,24.1723077 C25.6078756,24.5501538 25.2858031,24.8523077 24.8928497,24.8523077" id="Fill-14" fill="#000000"></path>
                            <path d="M93.5633161,8.15753846 C90.8294301,8.15753846 90.6528327,11.8436923 90.6528327,14.1446154 C90.6528327,16.4455385 90.6192746,21.3636923 93.5297409,21.3636923 C96.4041451,21.3636923 96.5446632,17.3975385 96.5446632,14.9747692 C96.5446632,13.3895385 96.4744041,11.4855385 95.9894301,9.97846154 C95.5740933,8.67138462 94.7415544,8.15753846 93.5633161,8.15753846 M93.5297409,4.30769231 C99.0348187,4.30769231 102.016166,8.98769231 102.016166,14.9353846 C102.016166,20.6892308 98.7233161,25.2523077 93.5297409,25.2523077 C88.1229016,25.2523077 85.1813472,20.5673846 85.1813472,14.744 C85.1813472,8.87076923 88.1651813,4.30769231 93.5297409,4.30769231" id="Fill-15" fill="#000000"></path>
                            <path d="M108.825078,24.8547692 L105.123109,24.8547692 C104.755648,24.8301538 104.464041,24.5384615 104.464041,24.1747692 L104.455959,5.32307692 C104.486425,4.97907692 104.79544,4.70707692 105.167876,4.70707692 L108.609326,4.70707692 C108.931399,4.71815385 109.203731,4.93723077 109.268394,5.23446154 L109.268394,8.11569231 L109.34114,8.11569231 C110.37886,5.53969231 111.833782,4.30769231 114.394197,4.30769231 C116.057409,4.30769231 117.686425,4.904 118.724145,6.53046154 C119.694715,8.04061538 119.694715,10.5772308 119.694715,12.3981538 L119.694715,24.2609231 C119.652435,24.5938462 119.349637,24.8547692 118.979689,24.8547692 L115.264041,24.8547692 C114.918964,24.8326154 114.641036,24.5803077 114.601865,24.2609231 L114.601865,14.0246154 C114.601865,11.9649231 114.843109,8.94830769 112.280207,8.94830769 C111.379896,8.94830769 110.552332,9.54461538 110.134508,10.4553846 C109.615959,11.6043077 109.545699,12.7563077 109.545699,14.0246154 L109.545699,24.1723077 C109.537617,24.5495385 109.220518,24.8547692 108.825078,24.8547692" id="Fill-16" fill="#000000"></path>
                            <path d="M63.1697409,24.9883077 C62.9260104,25.208 62.5697409,25.2215385 62.2949223,25.0744615 C61.0638342,24.0615385 60.842487,23.5950769 60.1691192,22.6264615 C58.1303627,24.6830769 56.6860104,25.2966154 54.0503627,25.2966154 C50.9291192,25.2966154 48.4974093,23.3870769 48.4974093,19.5735385 C48.4974093,16.5895385 50.1270466,14.5636923 52.4543005,13.5698462 C54.4681865,12.6984615 57.2779275,12.5372308 59.4317098,12.296 L59.4317098,11.8215385 C59.4317098,10.9470769 59.4963731,9.91692308 58.9772021,9.16246154 C58.5289119,8.488 57.6590674,8.20430769 56.8967876,8.20430769 C55.4829016,8.20430769 54.2238342,8.92369231 53.9129534,10.4166154 C53.8482902,10.7415385 53.6045596,11.0689231 53.2675648,11.0855385 L49.6756477,10.7027692 C49.3697409,10.6332308 49.0333679,10.3944615 49.1204145,9.93661538 C49.9473575,5.61230769 53.8874611,4.30769231 57.4153368,4.30769231 C59.2215544,4.30769231 61.5823834,4.78769231 63.0074611,6.13661538 C64.8074611,7.808 64.6339896,10.0307692 64.6339896,12.4596923 L64.6339896,18.1803077 C64.6339896,19.9009231 65.3602073,20.656 66.0360622,21.5858462 C66.2741969,21.9156923 66.3276684,22.3181538 66.0248705,22.5569231 C65.264456,23.1870769 63.9245596,24.3476923 63.1784456,24.9993846 L63.1697409,24.9883077 Z M59.4317098,16.0375385 C59.4317098,17.4664615 59.4627979,18.6627692 58.7359585,19.9316923 C58.1446632,20.9643077 57.2051813,21.5993846 56.1643523,21.5993846 C54.7454922,21.5993846 53.9098446,20.5255385 53.9098446,18.9403077 C53.9098446,15.8067692 56.7450777,15.2406154 59.4317098,15.2406154 L59.4317098,16.0375385 L59.4317098,16.0375385 Z" id="Fill-17" fill="#000000"></path>
                            <path d="M14.6698446,24.9883077 C14.4254922,25.208 14.0723316,25.2215385 13.797513,25.0744615 C12.5633161,24.0615385 12.344456,23.5950769 11.668601,22.6264615 C9.63295337,24.6830769 8.18860104,25.2966154 5.54984456,25.2966154 C2.42549223,25.2966154 0,23.3870769 0,19.5735385 C0,16.5895385 1.62901554,14.5636923 3.95689119,13.5698462 C5.97015544,12.6984615 8.77740933,12.5372308 10.9311917,12.296 L10.9311917,11.8215385 C10.9311917,10.9470769 11.0045596,9.91692308 10.4797927,9.16246154 C10.0308808,8.488 9.16165803,8.20430769 8.39875648,8.20430769 C6.98300518,8.20430769 5.72642487,8.92369231 5.41492228,10.4166154 C5.35336788,10.7415385 5.1065285,11.0689231 4.77326425,11.0855385 L1.17512953,10.7027692 C0.872331606,10.6332308 0.535336788,10.3944615 0.619896373,9.93661538 C1.44683938,5.61230769 5.38445596,4.30769231 8.91792746,4.30769231 C10.7235233,4.30769231 13.082487,4.78769231 14.5038342,6.13661538 C16.3100518,7.808 16.1359585,10.0307692 16.1359585,12.4596923 L16.1359585,18.1803077 C16.1359585,19.9009231 16.8596891,20.656 17.5380311,21.5858462 C17.7711917,21.9156923 17.8271503,22.3156923 17.5243523,22.5569231 C16.7670466,23.1870769 15.4153368,24.3476923 14.6779275,24.9993846 L14.6698446,24.9883077 Z M10.9311917,16.0375385 C10.9311917,17.4664615 10.9647668,18.6627692 10.2360622,19.9316923 C9.64414508,20.9643077 8.70715026,21.5993846 7.67005181,21.5993846 C6.24497409,21.5993846 5.41243523,20.5255385 5.41243523,18.9403077 C5.41243523,15.8067692 8.25015544,15.2406154 10.9311917,15.2406154 L10.9311917,16.0375385 L10.9311917,16.0375385 Z" id="Fill-18" fill="#000000"></path>
                        </g>
                        <g id="payments" transform="translate(0.000000, 48.000000)" fill="#000000">
                            <path d="M6.89606695,23.1505263 C5.63079498,23.1505263 4.64937238,22.9282105 3.48384937,22.3787368 L3.48384937,8.04126316 C4.66476987,7.69957895 5.75799163,7.54547368 6.98376569,7.54547368 C11.5307113,7.54547368 14.2453556,10.4027368 14.2453556,15.1825263 C14.2453556,20.1707368 11.4979079,23.1505263 6.89606695,23.1505263 M7.02594142,4.69705263 C4.91514644,4.69705263 2.59949791,5.11578947 0.506778243,5.88189474 C0.322677824,5.94757895 0.198828452,6.11873684 0.198828452,6.30631579 L0.198828452,34.9553684 C0.198828452,35.2061053 0.416401674,35.4107368 0.682175732,35.4107368 L3.00117155,35.4107368 C3.26694561,35.4107368 3.48384937,35.2061053 3.48384937,34.9553684 L3.48384937,25.4778947 C4.55029289,25.8397895 5.75799163,26.0418947 6.89606695,26.0418947 C13.2338075,26.0418947 17.6635983,21.6094737 17.6635983,15.2627368 C17.6635983,8.64505263 13.6870293,4.69705263 7.02594142,4.69705263" id="Fill-1"></path>
                            <path d="M32.3742259,15.8166316 L32.3742259,20.3658947 C31.1417573,21.5993684 29.2518828,23.1517895 26.7333891,23.1517895 C24.4994142,23.1517895 23.0587448,21.7421053 23.0587448,19.5568421 C23.0587448,18.2665263 23.6779916,17.2496842 24.8100418,16.7002105 C25.82159,16.2012632 27.0661088,15.9618947 28.8475314,15.9277895 L32.3742259,15.8166316 Z M35.6592469,17.7821053 L35.6592469,11.5894737 C35.6592469,7.20821053 32.9660251,4.69578947 28.2617573,4.69578947 C26.507113,4.69578947 23.8379916,5.04884211 21.0871967,6.75284211 C20.8729707,6.88357895 20.8066946,7.14568421 20.9271967,7.35663158 L21.9360669,9.04863158 C21.9989958,9.15663158 22.1081172,9.23368421 22.2319665,9.26463158 C22.3584937,9.29621053 22.4943933,9.28231579 22.6061925,9.21347368 C24.1037657,8.35642105 25.6589121,7.59031579 28.1740586,7.59031579 C30.8826778,7.59031579 32.3742259,9.11115789 32.3742259,11.88 L32.3742259,12.9252632 L28.6815063,13.0364211 C26.507113,13.1191579 24.8709623,13.3016842 23.42159,13.9452632 C20.9847699,15.0189474 19.6411715,17.0444211 19.6411715,19.6395789 C19.6411715,23.4082105 22.4823431,26.0406316 26.5586611,26.0406316 C28.7082845,26.0406316 30.7374059,25.2543158 32.6065272,23.7075789 L32.9566527,25.2688421 C33.0021757,25.4766316 33.1983264,25.6301053 33.4246025,25.6301053 L35.6137238,25.6301053 C35.7650209,25.6301053 35.9069456,25.5618947 35.9973222,25.4507368 C36.0876987,25.3395789 36.1178243,25.1943158 36.0816736,25.0578947 C35.7891213,24.0006316 35.6592469,21.7591579 35.6592469,17.7821053 L35.6592469,17.7821053 Z" id="Fill-2"></path>
                            <path d="M55.8580753,5.19031579 L53.363682,5.19031579 C53.158159,5.19031579 52.9680335,5.316 52.9051046,5.50421053 L47.5333891,21.0574737 L40.5067782,5.46694737 C40.4311297,5.29894737 40.2564017,5.19031579 40.0629289,5.19031579 L37.3911297,5.19031579 C37.2311297,5.19031579 37.0798326,5.26736842 36.9861088,5.39557895 C36.89841,5.52378947 36.883682,5.68610526 36.9499582,5.82568421 L45.9842678,25.4526316 C44.5047699,30.2728421 42.4662762,32.5206316 39.5829289,32.5206316 C38.6617573,32.5206316 37.7954812,32.3633684 37.0075314,32.0589474 C36.8776569,32.0103158 36.7323849,32.0134737 36.6085356,32.0728421 C36.4820084,32.1328421 36.3916318,32.2383158 36.3554812,32.3665263 L35.832636,34.3061053 C35.7697071,34.5284211 35.892887,34.7589474 36.1198326,34.8416842 C37.1916318,35.2465263 38.1817573,35.4113684 39.534728,35.4113684 C42.7353975,35.4113684 46.0538912,34.4204211 48.6567364,27.216 L56.3166527,5.79157895 C56.3648536,5.652 56.3441004,5.50105263 56.2503766,5.38168421 C56.16,5.26168421 56.014728,5.19031579 55.8580753,5.19031579" id="Fill-3"></path>
                            <path d="M81.7479498,4.69642105 C79.3238494,4.69642105 76.7658577,5.77073684 74.1449372,7.896 C73.1153138,5.85284211 71.1712134,4.69642105 68.7102929,4.69642105 C66.4334728,4.69642105 64.2108787,5.55978947 61.7687029,7.40273684 L61.5297071,5.59136842 C61.4995816,5.36021053 61.2940586,5.18968421 61.0497071,5.18968421 L59.123682,5.18968421 C58.8605858,5.18968421 58.6430126,5.39494737 58.6430126,5.64505263 L58.6430126,25.1728421 C58.6430126,25.4229474 58.8605858,25.6282105 59.123682,25.6282105 L61.4453556,25.6282105 C61.7111297,25.6282105 61.9287029,25.4229474 61.9287029,25.1728421 L61.9287029,10.7216842 C63.8607531,9.09789474 65.9809205,7.63073684 68.3568201,7.63073684 C70.7179916,7.63073684 71.7268619,9.14589474 71.7268619,12.7067368 L71.7268619,25.1728421 C71.7268619,25.4229474 71.9410879,25.6282105 72.2068619,25.6282105 L74.5285356,25.6282105 C74.7943096,25.6282105 75.0118828,25.4229474 75.0118828,25.1728421 L75.0118828,11.9210526 C75.0118828,11.5250526 74.97841,11.0949474 74.9395816,10.7046316 C76.6935565,9.24 78.9790795,7.63073684 81.3978243,7.63073684 C83.7589958,7.63073684 84.7645188,9.14589474 84.7645188,12.7067368 L84.7645188,25.1728421 C84.7645188,25.4229474 84.9820921,25.6282105 85.2505439,25.6282105 L87.5695397,25.6282105 C87.8353138,25.6282105 88.0495397,25.4229474 88.0495397,25.1728421 L88.0495397,11.9210526 C88.0495397,6.59368421 84.7946444,4.69642105 81.7479498,4.69642105" id="Fill-4"></path>
                            <path d="M94.7360669,13.2397895 C94.9891213,9.86463158 97.0697908,7.54547368 99.9203347,7.54547368 C102.942929,7.54547368 104.449205,10.3345263 104.663431,13.2397895 L94.7360669,13.2397895 Z M99.878159,4.69705263 C94.7989958,4.69705263 91.2542259,8.95831579 91.2542259,15.0574737 C91.2542259,21.7288421 95.1189958,26.0418947 101.100586,26.0418947 C103.377406,26.0418947 105.940753,25.3465263 107.629121,24.2696842 C107.825272,24.1446316 107.897573,23.9052632 107.795146,23.7006316 L107.009874,22.0907368 C106.952301,21.9770526 106.846527,21.8886316 106.72,21.8488421 C106.593473,21.8090526 106.454226,21.8261053 106.333724,21.8854737 C105.249205,22.4614737 103.534728,23.1505263 101.53841,23.1505263 C96.7437657,23.1505263 94.8686192,19.4242105 94.6845188,16.0515789 L107.710126,16.0515789 C107.9759,16.0515789 108.190126,15.8469474 108.190126,15.5962105 L108.190126,15.0176842 C108.190126,8.64821053 105.004854,4.69705263 99.878159,4.69705263 L99.878159,4.69705263 Z" id="Fill-5"></path>
                            <path d="M121.913305,4.69642105 C119.639833,4.69642105 117.417238,5.55978947 114.974393,7.40273684 L114.736067,5.59136842 C114.705941,5.36021053 114.500418,5.18968421 114.256067,5.18968421 L112.33272,5.18968421 C112.066946,5.18968421 111.849372,5.39494737 111.849372,5.64505263 L111.849372,25.1728421 C111.849372,25.4229474 112.066946,25.6282105 112.33272,25.6282105 L114.651715,25.6282105 C114.91749,25.6282105 115.134393,25.4229474 115.134393,25.1728421 L115.134393,10.7216842 C117.069791,9.09789474 119.186611,7.63073684 121.56318,7.63073684 C123.066778,7.63073684 125.062427,8.15494737 125.062427,12.7067368 L125.062427,25.1728421 C125.062427,25.4229474 125.28,25.6282105 125.545774,25.6282105 L127.867448,25.6282105 C128.130544,25.6282105 128.347448,25.4229474 128.347448,25.1728421 L128.347448,11.9210526 C128.347448,6.59368421 125.026276,4.69642105 121.913305,4.69642105" id="Fill-6"></path>
                            <path d="M143.238159,22.0515789 C143.177908,21.9290526 143.062762,21.8349474 142.924184,21.8008421 C142.788285,21.7667368 142.640335,21.7926316 142.52251,21.8665263 C141.622762,22.4614737 140.423766,23.1511579 139.167866,23.1511579 C138.43749,23.1511579 137.462092,22.9433684 137.462092,21.1686316 L137.462092,7.99894737 L142.316987,7.99894737 C142.516485,7.99894737 142.694561,7.88526316 142.770209,7.71157895 L143.555481,5.81115789 C143.612385,5.67157895 143.59431,5.51242105 143.503933,5.38673684 C143.413556,5.26484211 143.265607,5.19031579 143.105607,5.19031579 L137.462092,5.19031579 L137.462092,0.484421053 C137.462092,0.336631579 137.386444,0.199578947 137.259916,0.111157895 C137.130042,0.0290526316 136.964017,0.00631578947 136.818745,0.0574736842 L134.499749,0.840631579 C134.306276,0.906315789 134.179749,1.07684211 134.179749,1.27073684 L134.179749,5.19031579 L131.290377,5.19031579 C131.024603,5.19031579 130.807029,5.39305263 130.807029,5.64631579 L130.807029,7.54610526 C130.807029,7.79684211 131.024603,7.99894737 131.290377,7.99894737 L134.179749,7.99894737 L134.179749,21.3334737 C134.179749,24.3675789 135.795146,26.0425263 138.730042,26.0425263 C140.786611,26.0425263 142.661088,25.0509474 143.869456,24.2191579 C144.059582,24.0909474 144.12318,23.8572632 144.026109,23.6608421 L143.238159,22.0515789" id="Fill-8"></path>
                            <path d="M154.045858,13.8107368 L153.780084,13.6938947 C151.412887,12.6688421 149.860418,11.8623158 149.860418,10.1021053 C149.860418,8.40694737 151.183264,7.54673684 153.798159,7.54673684 C155.730209,7.54673684 157.128703,8.028 158.24,8.49789474 C158.38795,8.56105263 158.562678,8.54652632 158.698577,8.46378947 C158.834477,8.38105263 158.916151,8.23578947 158.916151,8.08231579 L158.916151,6.06 C158.916151,5.87431579 158.801004,5.70947368 158.620251,5.63810526 C157.521004,5.208 155.763682,4.69515789 153.664937,4.69515789 C148.767866,4.69515789 146.575397,7.51515789 146.575397,10.3098947 C146.575397,14.0355789 149.546444,15.312 151.935063,16.3376842 L152.330711,16.5082105 C154.432134,17.3974737 156.249707,18.1692632 156.249707,20.0551579 C156.249707,22.8467368 153.248536,23.1511579 151.959163,23.1511579 C149.576569,23.1511579 148.157992,22.3654737 147.215397,21.8469474 C147.094895,21.7837895 146.950293,21.7667368 146.817071,21.8096842 C146.687197,21.8526316 146.581423,21.9461053 146.527197,22.0629474 L145.739247,23.8408421 C145.64887,24.0429474 145.723849,24.2766316 145.917322,24.396 C146.913473,25.0111579 149.000167,26.0425263 151.784435,26.0425263 C156.518828,26.0425263 159.574226,23.6728421 159.574226,20.0122105 C159.574226,18.4338947 159.088201,17.1808421 158.086025,16.1892632 C156.992803,15.1155789 155.49523,14.4543158 154.045858,13.8107368" id="Fill-9"></path>
                        </g>
                    </g>
                </g>
            </g>
        </g>
    </g>
</svg>