<?xml version="1.0" encoding="UTF-8"?>
<svg width="476px" height="120px" viewBox="0 0 476 120" version="1.1" xmlns="http://www.w3.org/2000/svg" xmlns:xlink="http://www.w3.org/1999/xlink">
    <!-- Generator: Sketch 56.3 (81716) - https://sketch.com -->
    <title>large/amazon2</title>
    <desc>Created with Sketch.</desc>
    <defs>
        <linearGradient x1="50%" y1="0%" x2="50%" y2="100%" id="linearGradient-1">
            <stop stop-color="#F8DF99" offset="0%"></stop>
            <stop stop-color="#F8C844" offset="100%"></stop>
        </linearGradient>
    </defs>
    <g id="Rounded" stroke="none" stroke-width="1" fill="none" fill-rule="evenodd">
        <g id="Large" transform="translate(-32.000000, -2460.000000)">
            <g id="large/amazon2" transform="translate(32.000000, 2460.000000)">
                <rect id="Background" stroke-opacity="0.1" stroke="#000000" stroke-width="4" fill="url(#linearGradient-1)" x="2" y="2" width="472" height="116" rx="16"></rect>
                <text id="Pay-with-Amazon" font-family="Gilroy-Semibold, Gilroy" font-size="40" font-weight="500" letter-spacing="-1" fill="#000000">
                    <tspan x="136" y="71">Pay with Amazon</tspan>
                </text>
                <path d="M32.120015,78.561254 C32.312039,78.239516 32.6200775,78.2188918 33.048131,78.4993813 C42.7453432,84.2989138 53.2986623,87.2028049 64.704088,87.2028049 C72.3050381,87.2028049 79.8139767,85.7384848 87.2269034,82.8180943 L88.0670084,82.4592328 C88.4350544,82.294239 88.6950869,82.1787433 88.8511064,82.1003712 C89.4351794,81.8611302 89.8912364,81.9766259 90.2232779,82.4592328 C90.5513189,82.9377148 90.4433054,83.3790733 89.9032379,83.7791833 C89.2031504,84.2989138 88.3110389,84.9011412 87.2229029,85.5776158 C83.8904863,87.6194143 80.1660208,89.19923 76.0535067,90.321188 C71.9449931,91.4348962 67.9324916,92 64.0120015,92 C57.9592449,92 52.2385298,90.906916 46.8498562,88.7289977 C41.4491811,86.5510793 36.6245781,83.4780696 32.3560445,79.5182181 C32.120015,79.3243503 32,79.1181081 32,78.9201155 C32,78.7963701 32.040005,78.6808745 32.120015,78.561254 L32.120015,78.561254 Z M49.6262033,61.4637701 C49.6262033,58.7001237 50.2862858,56.3407122 51.6064508,54.3814107 C52.9266158,52.4221092 54.7268409,50.9412897 57.0191274,49.9389523 C59.1113889,49.0191118 61.6917115,48.3591365 64.7560945,47.9590265 C65.7962245,47.8352812 67.5084386,47.6785371 69.8767346,47.4805445 L69.8767346,46.4617077 C69.8767346,43.9043036 69.5966996,42.1801182 69.0566321,41.305651 C68.2445306,40.1011962 66.9643705,39.4989688 65.216152,39.4989688 L64.7640955,39.4989688 C63.4839355,39.6227141 62.375797,40.0351987 61.4436805,40.7611715 C60.5115639,41.4830194 59.9114889,42.4853568 59.6434554,43.7640588 C59.4834354,44.5642788 59.0953869,45.0262615 58.4753094,45.145882 L51.7824728,44.3044136 C51.1263908,44.1394198 50.7943493,43.7805582 50.7943493,43.2195793 C50.7943493,43.0958339 50.8143518,42.959714 50.8543568,42.798845 C51.5144393,39.2391035 53.1346418,36.5992025 55.7109639,34.879142 C58.2912864,33.1590815 61.311664,32.1979926 64.760095,32 L66.2122765,32 C70.6328291,32 74.0852607,33.1797058 76.5735717,35.5391173 C76.9576197,35.9392273 77.3136642,36.372336 77.6457057,36.8301939 C77.9777472,37.2921765 78.2457807,37.6964114 78.4338042,38.0593978 C78.6338292,38.4223842 78.8018502,38.9421147 78.9538692,39.626839 C79.1138892,40.2991888 79.2339042,40.7694211 79.3059132,41.0292864 C79.3859232,41.2891517 79.4419302,41.8542555 79.4819352,42.7122233 C79.5219402,43.5701911 79.5379422,44.0816719 79.5379422,44.2384161 L79.5379422,58.7578716 C79.5379422,59.8014574 79.6819602,60.7501719 79.9779972,61.6040148 C80.2580323,62.4702324 80.5460683,63.0889592 80.8181023,63.4684449 L82.1542693,65.2998763 C82.3862983,65.6587378 82.5023128,65.9804757 82.5023128,66.2609652 C82.5023128,66.5785783 82.3502938,66.8590678 82.0382548,67.0983088 C78.8138517,69.9857005 77.0696337,71.5407672 76.7975997,71.7800082 C76.3335417,72.1429946 75.7694712,72.1842431 75.1093887,71.9037536 C74.5653207,71.4252716 74.0932617,70.9632889 73.6852107,70.5219304 C73.2771596,70.0846968 72.9851231,69.7629589 72.8131016,69.5649663 C72.6370796,69.358724 72.3570446,68.9751134 71.9729966,68.3935102 C71.5809476,67.8077822 71.3089136,67.4200467 71.1528941,67.2179293 C68.9766221,69.6598378 66.8443555,71.1777808 64.752094,71.7800082 C63.431929,72.1842431 61.799725,72.3822357 59.8594824,72.3822357 C56.8751094,72.3822357 54.4188024,71.4335212 52.4985623,69.5360924 C50.5783223,67.6386636 49.6182023,64.9451396 49.6182023,61.4637701 L49.6262033,61.4637701 Z M59.6354544,60.2593153 C59.6354544,61.8185068 60.0115014,63.0642101 60.7675959,64.0129245 C61.527691,64.9492644 62.5398175,65.4153719 63.8199775,65.4153719 C63.9399925,65.4153719 64.1000125,65.3988725 64.3160395,65.3617489 C64.528066,65.3205005 64.6760845,65.2998763 64.7560945,65.2998763 C66.3802975,64.8585178 67.6444556,63.7819332 68.5365671,62.0618727 C68.9606201,61.2987763 69.2806601,60.4696824 69.4966871,59.5704661 C69.7087136,58.6753747 69.8247281,57.9452771 69.8447306,57.3842981 C69.8647331,56.8233191 69.8727341,55.8993538 69.8727341,54.6206517 L69.8727341,53.1233329 C67.6204526,53.1233329 65.912239,53.2883267 64.752094,53.6059398 C61.335667,54.6041523 59.6314539,56.8233191 59.6314539,60.2634401 L59.6354544,60.2593153 Z M84.0705088,79.5800907 C84.1505188,79.4150969 84.2705338,79.2583528 84.4185523,79.0974838 C85.3906738,78.4210092 86.3227903,77.9590265 87.2189024,77.7197855 C88.6870859,77.3238004 90.1232654,77.1010587 91.5194399,77.0598103 C91.9074884,77.0185618 92.2795349,77.0433109 92.6235779,77.1216829 C94.3717965,77.2866767 95.423928,77.5836656 95.767971,78.0291489 C95.927991,78.2642651 96,78.6231266 96,79.1016087 L96,79.5223429 C96,80.9247903 95.631954,82.5747284 94.895862,84.4721573 C94.1557695,86.3695861 93.127641,87.9040286 91.8154769,89.0631101 C91.6154519,89.2281039 91.4434304,89.3023512 91.2874109,89.3023512 C91.2074009,89.3023512 91.1273909,89.2817269 91.0553819,89.2446033 C90.8153519,89.120858 90.7633454,88.9022412 90.8793599,88.5846281 C92.3195399,85.1032586 93.031629,82.6860993 93.031629,81.3249003 C93.031629,80.8835419 92.951619,80.5618039 92.7995999,80.3638114 C92.4115514,79.8894541 91.3274159,79.6460883 89.5391924,79.6460883 C88.8831104,79.6460883 88.1070134,79.6873367 87.2189024,79.7698336 C86.2427803,79.893579 85.3506688,80.0090747 84.5385673,80.1286952 C84.2985373,80.1286952 84.1505188,80.0874467 84.0705088,80.0049498 C83.9904988,79.9224529 83.9744968,79.8482057 84.0145018,79.7657088 C84.0145018,79.7244603 84.0305038,79.6667125 84.0705088,79.5883404 L84.0705088,79.5800907 Z" id="Shape" fill="#000000"></path>
            </g>
        </g>
    </g>
</svg>