<?xml version="1.0" encoding="UTF-8"?>
<svg width="200px" height="120px" viewBox="0 0 200 120" version="1.1" xmlns="http://www.w3.org/2000/svg" xmlns:xlink="http://www.w3.org/1999/xlink">
    <!-- Generator: Sketch 56.3 (81716) - https://sketch.com -->
    <title>large/american-express</title>
    <desc>Created with Sketch.</desc>
    <g id="Rounded" stroke="none" stroke-width="1" fill="none" fill-rule="evenodd">
        <g id="Large" transform="translate(-32.000000, -968.000000)">
            <g id="large/american-express" transform="translate(32.000000, 968.000000)">
                <rect id="Background" fill="#13A8E0" x="0" y="0" width="200" height="120" rx="8"></rect>
                <g id="Logo" transform="translate(0.000000, 24.000000)" fill="#FFFFFF" fill-rule="nonzero">
                    <g id="amex">
                        <path d="M18.4120141,19.0306923 L14.5787986,9.37211538 L10.7674912,19.0306923 L18.4120141,19.0306923 Z M102.857244,15.1846538 C102.087633,15.6676923 101.177385,15.6837692 100.086926,15.6837692 L93.2833922,15.6837692 L93.2833922,10.3023846 L100.179505,10.3023846 C101.155477,10.3023846 102.173852,10.3476923 102.835336,10.7393846 C103.561837,11.0923462 104.011307,11.8435769 104.011307,12.8812692 C104.011307,13.9401538 103.583746,14.7922308 102.857244,15.1846538 Z M151.392933,19.0306923 L147.517314,9.37211538 L143.662898,19.0306923 L151.392933,19.0306923 Z M60.9194346,29.4850769 L55.1780919,29.4850769 L55.1568905,10.5099231 L47.0360424,29.4850769 L42.1187279,29.4850769 L33.9766784,10.4931154 L33.9766784,29.4850769 L22.5858657,29.4850769 L20.4339223,24.0810385 L8.77314488,24.0810385 L6.59929329,29.4850769 L0.516607774,29.4850769 L10.545583,5.25715385 L18.8664311,5.25715385 L28.3915194,28.196 L28.3915194,5.25715385 L37.5321555,5.25715385 L44.8614841,21.6928846 L51.5943463,5.25715385 L60.9187279,5.25715385 L60.9187279,29.4850769 L60.9194346,29.4850769 Z M83.8021201,29.4850769 L65.0932862,29.4850769 L65.0932862,5.25715385 L83.8021201,5.25715385 L83.8021201,10.3023846 L70.6939929,10.3023846 L70.6939929,14.6694615 L83.4876325,14.6694615 L83.4876325,19.6357692 L70.6939929,19.6357692 L70.6939929,24.4741923 L83.8021201,24.4741923 L83.8021201,29.4850769 L83.8021201,29.4850769 Z M110.180919,11.7821923 C110.180919,15.6450385 107.687633,17.6407692 106.234629,18.24 C107.460071,18.7223077 108.506714,19.5743846 109.004947,20.2803077 C109.79576,21.4853462 109.932155,22.5617692 109.932155,24.7255769 L109.932155,29.4850769 L104.283392,29.4850769 L104.262191,26.4297308 C104.262191,24.9718462 104.397173,22.8752692 103.378092,21.7096923 C102.559717,20.8576154 101.312367,20.6727308 99.2961131,20.6727308 L93.2840989,20.6727308 L93.2840989,29.4850769 L87.6840989,29.4850769 L87.6840989,5.25715385 L100.565371,5.25715385 C103.427562,5.25715385 105.536396,5.33534615 107.346996,6.41761538 C109.118728,7.49988462 110.180919,9.07980769 110.180919,11.7821923 Z M119.143463,29.4850769 L113.428975,29.4850769 L113.428975,5.25715385 L119.143463,5.25715385 L119.143463,29.4850769 Z M185.438869,29.4850769 L177.502473,29.4850769 L166.886926,11.3006154 L166.886926,29.4850769 L155.481272,29.4850769 L153.301767,24.0810385 L141.667845,24.0810385 L139.553357,29.4850769 L133,29.4850769 C130.277739,29.4850769 126.831095,28.8624615 124.879152,26.8053462 C122.910954,24.7482308 121.886926,21.9618077 121.886926,17.556 C121.886926,13.9628077 122.49894,10.678 124.906007,8.08230769 C126.716608,6.14869231 129.551943,5.25715385 133.411307,5.25715385 L138.833216,5.25715385 L138.833216,10.4485385 L133.525088,10.4485385 C131.481272,10.4485385 130.327208,10.7627692 129.215548,11.8837692 C128.260777,12.9039231 127.605654,14.8324231 127.605654,17.3718462 C127.605654,19.9675385 128.104594,21.8390385 129.145583,23.0616154 C130.007774,24.0203846 131.574558,24.3112308 133.048763,24.3112308 L135.563958,24.3112308 L143.457244,5.25788462 L151.848763,5.25788462 L161.330742,28.1740769 L161.330742,5.25788462 L169.857951,5.25788462 L179.702473,22.1313462 L179.702473,5.25788462 L185.438869,5.25788462 L185.438869,29.4850769 Z M0.450883392,34.2438462 L10.0204947,34.2438462 L12.1780919,28.8624615 L17.0084806,28.8624615 L19.160424,34.2438462 L37.9879859,34.2438462 L37.9879859,30.1296154 L39.6685512,34.2613846 L49.4424028,34.2613846 L51.1229682,30.0682308 L51.1229682,34.2438462 L97.9130742,34.2438462 L97.8911661,25.4103077 L98.7964664,25.4103077 C99.4303887,25.4329615 99.6155477,25.4936154 99.6155477,26.5758846 L99.6155477,34.2438462 L123.815548,34.2438462 L123.815548,32.1874615 C125.767491,33.269 128.803534,34.2438462 132.798587,34.2438462 L142.979505,34.2438462 L145.158304,28.8624615 L149.988693,28.8624615 L152.119435,34.2438462 L171.738516,34.2438462 L171.738516,29.1321154 L174.709541,34.2438462 L190.431095,34.2438462 L190.431095,0.453076923 L174.872085,0.453076923 L174.872085,4.44380769 L172.693286,0.453076923 L156.727915,0.453076923 L156.727915,4.44380769 L154.727208,0.453076923 L133.161837,0.453076923 C129.551943,0.453076923 126.378799,0.974115385 123.815548,2.42615385 L123.815548,0.453076923 L108.933569,0.453076923 L108.933569,2.42615385 C107.302473,0.929538462 105.079859,0.453076923 102.608481,0.453076923 L48.2388693,0.453076923 L44.5908127,9.18065385 L40.844523,0.453076923 L23.7194346,0.453076923 L23.7194346,4.44380769 L21.8381625,0.453076923 L7.23321555,0.453076923 L0.450883392,16.5190385 L0.450883392,34.2438462 L0.450883392,34.2438462 Z" id="Shape"></path>
                        <path d="M199.706007,52.1148077 L189.49894,52.1148077 C188.479859,52.1148077 187.802827,52.1542692 187.232509,52.5525385 C186.641696,52.9449615 186.414134,53.5273846 186.414134,54.2961538 C186.414134,55.2103462 186.913074,55.8322308 187.638869,56.1011538 C188.229682,56.3138077 188.864311,56.3759231 189.797173,56.3759231 L192.832509,56.4599615 C195.895406,56.5381538 197.939929,57.0825769 199.186572,58.4103846 C199.413428,58.5952692 199.549823,58.8028077 199.706007,59.0103462 L199.706007,52.1148077 Z M199.706007,68.0916154 C198.345583,70.1487308 195.6947,71.1915385 192.106007,71.1915385 L181.290459,71.1915385 L181.290459,65.9950385 L192.062191,65.9950385 C193.130742,65.9950385 193.878445,65.8496154 194.328622,65.3950769 C194.718728,65.0201923 194.990813,64.4757692 194.990813,63.8144231 C194.990813,63.1085 194.718728,62.548 194.306714,62.2118462 C193.900353,61.8420769 193.308834,61.674 192.333569,61.674 C187.074912,61.4891154 180.514488,61.8420769 180.514488,54.1733846 C180.514488,50.6583846 182.672792,46.9585 188.549823,46.9585 L199.706007,46.9585 L199.706007,42.1368846 L189.340636,42.1368846 C186.212721,42.1368846 183.940636,42.9115 182.331449,44.1158077 L182.331449,42.1368846 L167.000707,42.1368846 C164.549117,42.1368846 161.671378,42.7653462 160.310247,44.1158077 L160.310247,42.1368846 L132.933569,42.1368846 L132.933569,44.1158077 C130.75477,42.4905769 127.078445,42.1368846 125.381625,42.1368846 L107.323675,42.1368846 L107.323675,44.1158077 C105.6,42.3897308 101.766784,42.1368846 99.4303887,42.1368846 L79.2204947,42.1368846 L74.5957597,47.3121923 L70.264311,42.1368846 L40.0749117,42.1368846 L40.0749117,75.9510385 L69.6961131,75.9510385 L74.4614841,70.6938846 L78.95053,75.9510385 L97.2091873,75.9678462 L97.2091873,68.0134231 L99.0042403,68.0134231 C101.426855,68.0521538 104.284099,67.9513077 106.804947,66.8244615 L106.804947,75.9503077 L121.865018,75.9503077 L121.865018,67.1372308 L122.591519,67.1372308 C123.518728,67.1372308 123.609894,67.1766923 123.609894,68.1347308 L123.609894,75.9495769 L169.359717,75.9495769 C172.264311,75.9495769 175.300353,75.1808077 176.981625,73.7857692 L176.981625,75.9495769 L191.493286,75.9495769 C194.513074,75.9495769 197.462191,75.5118462 199.706007,74.3908462 L199.706007,68.0916154 Z M177.366078,58.4103846 C178.456537,59.5774231 179.040989,61.0506538 179.040989,63.5447692 C179.040989,68.7580769 175.891166,71.1915385 170.24311,71.1915385 L159.334982,71.1915385 L159.334982,65.9950385 L170.199293,65.9950385 C171.261484,65.9950385 172.014841,65.8496154 172.486926,65.3950769 C172.872085,65.0201923 173.14841,64.4757692 173.14841,63.8144231 C173.14841,63.1085 172.84947,62.548 172.465018,62.2118462 C172.036749,61.8420769 171.445936,61.674 170.470671,61.674 C165.233216,61.4891154 158.674205,61.8420769 158.674205,54.1733846 C158.674205,50.6583846 160.809894,46.9585 166.681272,46.9585 L177.908834,46.9585 L177.908834,52.1162692 L167.635336,52.1162692 C166.616961,52.1162692 165.95477,52.1557308 165.391519,52.554 C164.778092,52.9464231 164.55053,53.5288462 164.55053,54.2976154 C164.55053,55.2118077 165.071378,55.8336923 165.775972,56.1026154 C166.366784,56.3152692 167.001413,56.3773846 167.955477,56.3773846 L170.970318,56.4614231 C174.010601,56.5381538 176.097527,57.0818462 177.366078,58.4103846 Z M126.830389,56.9137692 C126.081272,57.3734231 125.15477,57.4128846 124.065018,57.4128846 L117.261484,57.4128846 L117.261484,51.9701154 L124.157597,51.9701154 C125.15477,51.9701154 126.15265,51.9920385 126.830389,52.4078462 C127.556184,52.8002692 127.990106,53.5507692 127.990106,54.5877308 C127.990106,55.6246923 127.556184,56.4599615 126.830389,56.9137692 Z M130.212721,59.9296538 C131.459364,60.4053846 132.478445,61.2581923 132.956184,61.9641154 C133.746996,63.1472308 133.861484,64.2514231 133.884099,66.3874615 L133.884099,71.1915385 L128.261484,71.1915385 L128.261484,68.1595769 C128.261484,66.7016923 128.397173,64.543 127.356184,63.4161538 C126.537809,62.548 125.290459,62.3404615 123.24735,62.3404615 L117.262191,62.3404615 L117.262191,71.1915385 L111.634629,71.1915385 L111.634629,46.9577692 L124.564664,46.9577692 C127.4,46.9577692 129.465018,47.0871154 131.30318,48.1014231 C133.070671,49.2056154 134.182332,50.7183077 134.182332,53.4828077 C134.181625,57.3507692 131.686926,59.3245769 130.212721,59.9296538 Z M137.287633,46.9577692 L155.979505,46.9577692 L155.979505,51.9693846 L142.865018,51.9693846 L142.865018,56.3751923 L155.659364,56.3751923 L155.659364,61.3195769 L142.865018,61.3195769 L142.865018,66.1411923 L155.979505,66.1631154 L155.979505,71.1915385 L137.287633,71.1915385 L137.287633,46.9577692 L137.287633,46.9577692 Z M99.5017668,58.1414615 L92.264311,58.1414615 L92.264311,51.9701154 L99.5667845,51.9701154 C101.588693,51.9701154 102.992226,52.8221923 102.992226,54.9414231 C102.992226,57.0372692 101.65371,58.1414615 99.5017668,58.1414615 Z M86.6862191,68.9875385 L78.0876325,59.1163077 L86.6862191,49.5585769 L86.6862191,68.9875385 Z M64.4805654,66.1411923 L50.7109541,66.1411923 L50.7109541,61.3195769 L63.0063604,61.3195769 L63.0063604,56.3751923 L50.7109541,56.3751923 L50.7109541,51.9693846 L64.7519435,51.9693846 L70.8777385,59.0315385 L64.4805654,66.1411923 Z M109.004947,54.9414231 C109.004947,61.6732692 104.147703,63.0631923 99.2522968,63.0631923 L92.264311,63.0631923 L92.264311,71.1915385 L81.3787986,71.1915385 L74.4826855,63.1691538 L67.3159011,71.1915385 L45.1321555,71.1915385 L45.1321555,46.9577692 L67.6572438,46.9577692 L74.5477032,54.9012308 L81.6713781,46.9577692 L99.5667845,46.9577692 C104.011307,46.9577692 109.004947,48.2300385 109.004947,54.9414231 Z" id="Shape"></path>
                    </g>
                </g>
            </g>
        </g>
    </g>
</svg>