<?xml version="1.0" encoding="UTF-8"?>
<svg width="200px" height="120px" viewBox="0 0 200 120" version="1.1" xmlns="http://www.w3.org/2000/svg" xmlns:xlink="http://www.w3.org/1999/xlink">
    <!-- Generator: Sketch 56.3 (81716) - https://sketch.com -->
    <title>large/bitcoin-1</title>
    <desc>Created with Sketch.</desc>
    <g id="Rounded" stroke="none" stroke-width="1" fill="none" fill-rule="evenodd">
        <g id="Large" transform="translate(-32.000000, -2644.000000)">
            <g id="large/bitcoin-1" transform="translate(32.000000, 2644.000000)">
                <rect id="Background" fill="#F89C2E" x="0" y="0" width="200" height="120" rx="8"></rect>
                <g id="Logo" transform="translate(60.000000, 20.000000)">
                    <g id="bitcoin">
                        <path d="M78.7943257,49.4298454 C73.4518257,70.7519847 51.7480757,83.7283528 30.3168257,78.4111887 C8.8943257,73.0952683 -4.1469243,51.4982533 1.1980757,30.1773578 C6.5380757,8.85273094 28.2418257,-4.124881 49.6668257,1.1910394 C71.0968257,6.50695979 84.1368257,28.1064623 78.7943257,49.4298454 L78.7943257,49.4298454 Z" id="coin" fill="#FFFFFF"></path>
                        <path d="M57.6255757,34.1313379 C58.4218257,28.835318 54.3693257,25.9883031 48.8280757,24.0890493 L50.6255757,16.91492 L46.2368257,15.8266115 L44.4868257,22.8116862 C43.3330757,22.5256165 42.1480757,22.255716 40.9705757,21.9883031 L42.7330757,14.9572086 L38.3468257,13.8689001 L36.5480757,21.0405419 C35.5930757,20.824124 34.6555757,20.6101936 33.7455757,20.3850692 L33.7505757,20.3626812 L27.6980757,18.8589498 L26.5305757,23.5231289 C26.5305757,23.5231289 29.7868257,24.2656663 29.7180757,24.3116862 C31.4955757,24.7532285 31.8168257,25.9236265 31.7630757,26.8514872 L29.7155757,35.0243727 C29.8380757,35.0554673 29.9968257,35.1002434 30.1718257,35.1698951 C30.0255757,35.1338255 29.8693257,35.0940245 29.7080757,35.0554673 L26.8380757,46.5044722 C26.6205757,47.0417857 26.0693257,47.8477558 24.8268257,47.5417857 C24.8705757,47.6052185 21.6368257,46.7494971 21.6368257,46.7494971 L19.4580757,51.7482533 L25.1693257,53.16492 C26.2318257,53.4298454 27.2730757,53.7072086 28.2980757,53.9684026 L26.4818257,61.2246215 L30.8655757,62.3129299 L32.6643257,55.1338255 C33.8618257,55.4572086 35.0243257,55.755716 36.1618257,56.0368105 L34.3693257,63.1823329 L38.7580757,64.2706414 L40.5743257,57.0281041 C48.0580757,58.4373081 53.6855757,57.8689001 56.0543257,51.1338255 C57.9630757,45.7109399 55.9593257,42.5828304 52.0218257,40.5430294 C54.8893257,39.8850692 57.0493257,38.0082036 57.6255757,34.1313379 L57.6255757,34.1313379 Z M47.5980757,48.1226314 C46.2418257,53.545517 37.0655757,50.613925 34.0905757,49.8788503 L36.5005757,40.2656663 C39.4755757,41.0044722 49.0155757,42.4671588 47.5980757,48.1226314 L47.5980757,48.1226314 Z M48.9555757,34.0529797 C47.7180757,38.9858155 40.0805757,36.4795966 37.6030757,35.8651687 L39.7880757,27.1462633 C42.2655757,27.7606911 50.2443257,28.9074573 48.9555757,34.0529797 L48.9555757,34.0529797 Z" id="symbol-copy" fill="#F89C2E"></path>
                    </g>
                </g>
            </g>
        </g>
    </g>
</svg>