<?xml version="1.0" encoding="UTF-8"?>
<svg width="200px" height="120px" viewBox="0 0 200 120" version="1.1" xmlns="http://www.w3.org/2000/svg" xmlns:xlink="http://www.w3.org/1999/xlink">
    <!-- Generator: Sketch 56.3 (81716) - https://sketch.com -->
    <title>large/cirrus</title>
    <desc>Created with Sketch.</desc>
    <g id="Rounded" stroke="none" stroke-width="1" fill="none" fill-rule="evenodd">
        <g id="Large" transform="translate(-32.000000, -780.000000)">
            <g id="large/cirrus" transform="translate(32.000000, 780.000000)">
                <rect id="Background" fill="#10427A" x="0" y="0" width="200" height="120" rx="8"></rect>
                <g id="Logo" transform="translate(48.000000, 16.000000)" fill-rule="nonzero">
                    <g id="cirrus">
                        <polygon id="Shape" fill="#2271CE" points="66.0619928 56.8814495 37.9402983 56.8814495 37.9402983 6.80786922 66.0619928 6.80786922"></polygon>
                        <path d="M39.7242952,31.8456794 C39.7242952,42.0033358 44.5243138,51.0514852 51.9991838,56.8824696 C46.5330064,61.1463771 39.6343842,63.6913588 32.1370365,63.6913588 C14.3877968,63.6913588 6.99486852e-07,49.4337918 6.99486852e-07,31.8456794 C6.99486852e-07,14.2575672 14.3877968,0 32.1370365,0 C39.6343842,0 46.5330064,2.54498182 51.9991838,6.80888932 C44.5243138,12.6398739 39.7242952,21.6880232 39.7242952,31.8456794" id="Shape" fill="#005EB6" transform="translate(25.999592, 31.845679) scale(-1, 1) rotate(-180.000000) translate(-25.999592, -31.845679) "></path>
                        <path d="M104.000002,31.8456794 C104.000002,14.2575672 89.6122053,0 71.8629657,0 C64.3656183,0 57.466996,2.54498182 52.0008186,6.80888932 C59.4756882,12.6398739 64.2757074,21.6880232 64.2757074,31.8456794 C64.2757074,42.0033358 59.4756882,51.0514852 52.0008186,56.8824696 C57.466996,61.1463771 64.3656183,63.6913588 71.8629657,63.6913588 C89.6122053,63.6913588 104.000002,49.4337918 104.000002,31.8456794" id="Shape" fill="#0099DF" transform="translate(78.000410, 31.845679) scale(-1, 1) rotate(-180.000000) translate(-78.000410, -31.845679) "></path>
                    </g>
                    <path d="M75.7467665,78.0643705 C74.6928347,77.3402067 73.2385531,76.9655522 71.6395668,76.9655522 C69.0879418,76.9655522 67.4455439,78.2403827 67.4455439,80.3273823 C67.4455439,82.0397289 68.6682979,83.0932868 70.9208671,83.4251954 L71.9555053,83.5785773 C73.1541422,83.754589 73.7233138,84.0839831 73.7233138,84.6748807 C73.7233138,85.4895653 72.9226145,85.9497106 71.4273335,85.9497106 C69.9103463,85.9497106 68.8154143,85.4443049 68.077421,84.8508928 L67.0451945,86.631129 C68.2462427,87.5539352 69.7632299,87.9939653 71.4056273,87.9939653 C74.3141911,87.9939653 76,86.5657529 76,84.5667591 C76,82.7211468 74.6735407,81.7555952 72.4812653,81.4236861 L71.4490388,81.2703047 C70.5012237,81.1395524 69.7415242,80.9409106 69.7415242,80.2393764 C69.7415242,79.4699522 70.4578121,79.0098069 71.6588608,79.0098069 C72.9443203,79.0098069 74.18878,79.5152126 74.7989513,79.9099824 L75.7467665,78.0643705 Z M24,82.4792561 C24,85.6650745 26.1271583,87.9934624 29.373366,87.9934624 C30.8903529,87.9934624 31.9008737,87.6414381 32.9958055,86.7412621 L31.9418732,84.8956503 C31.1218804,85.5116926 30.2584758,85.8410867 29.3082487,85.8410867 C27.5597342,85.818456 26.2766865,84.5008801 26.2766865,82.4792561 C26.2766865,80.4576316 27.5597342,79.1400557 29.3082487,79.1174255 C30.2584758,79.1174255 31.1218804,79.4468191 31.9418732,80.0628614 L32.9958055,78.2172496 C31.9008737,77.3170736 30.8903529,76.9650493 29.373366,76.9650493 C26.1271583,76.9650493 24,79.2934372 24,82.4792561 Z M45.1230195,76.9657937 C43.8592657,76.9657937 43.0368607,77.5818359 42.4676891,78.5046421 L42.4676891,77.2298116 L40.2995313,77.2298116 L40.2995313,87.7301888 L42.4893949,87.7301888 L42.4893949,81.841328 C42.4893949,80.1063517 43.2056829,79.1407996 44.6382588,79.1407996 C45.0820197,79.1407996 45.5450746,79.2061757 46.0081291,79.4048181 L46.681006,77.2524418 C46.198657,77.0537995 45.5643686,76.9657937 45.1230195,76.9657937 Z M53.2608226,76.9657937 C51.9970689,76.9657937 51.1746638,77.5818359 50.6054928,78.5046421 L50.6054928,77.2298116 L48.4373344,77.2298116 L48.4373344,87.7301888 L50.627198,87.7301888 L50.627198,81.841328 C50.627198,80.1063517 51.3434865,79.1407996 52.7760619,79.1407996 C53.2198233,79.1407996 53.6828782,79.2061757 54.1459327,79.4048181 L54.8188096,77.2524418 C54.3364606,77.0537995 53.7021718,76.9657937 53.2608226,76.9657937 Z M37.9084316,87.7254213 L35.7040975,87.7254213 L35.7040975,77.2401309 L37.9084316,77.2401309 L37.9084316,87.7254213 Z M36.7942061,72 C37.0112628,72 37.2138495,72.0402315 37.404281,72.1257228 C37.5933614,72.2085997 37.7563954,72.3242647 37.8962765,72.4702037 C38.0351929,72.6160428 38.1470978,72.7870255 38.2267819,72.9831534 C38.3097457,73.1816947 38.3464044,73.3930099 38.3464044,73.6193114 C38.3464044,73.8456123 38.3078168,74.056827 38.2267819,74.2529549 C38.1476765,74.4514962 38.0357717,74.6200655 37.8962765,74.7633896 C37.7573601,74.9041992 37.5923967,75.0173497 37.404281,75.0952981 C37.2132707,75.1757605 37.0112628,75.215992 36.7942061,75.215992 C36.5771489,75.215992 36.3745624,75.1757605 36.1864465,75.0952981 C35.9954362,75.0174506 35.8343319,74.9041992 35.6967659,74.7633896 C35.5617082,74.6201665 35.4555914,74.4515972 35.3784156,74.2529549 C35.3012397,74.056827 35.262652,73.8456123 35.262652,73.6193114 C35.262652,73.3930099 35.3012397,73.1817952 35.3784156,72.9831534 C35.4555914,72.7870255 35.5617082,72.6160428 35.6967659,72.4702037 C35.8337529,72.3243652 35.9958222,72.2087002 36.1864465,72.1257228 C36.3755271,72.0402315 36.5771489,72 36.7942061,72 Z M65.6880576,83.2828766 C65.6880576,84.1151624 65.5554117,84.8292684 65.294943,85.4277094 C65.0320634,86.0261504 64.6871838,86.5139554 64.2578934,86.8936388 C63.828603,87.2733217 63.3390188,87.5524265 62.7867295,87.7309531 C62.2320285,87.9094797 61.6652687,88 61.0864501,88 C60.5052198,88 59.93846,87.9094797 59.3861702,87.7309531 C58.8314692,87.5524265 58.3394737,87.2733217 57.907771,86.8936388 C57.4760693,86.5139554 57.1311898,86.0261504 56.870721,85.4277094 C56.612665,84.8292684 56.4824304,84.1151624 56.4824304,83.2828766 L56.4824304,77.2406338 L58.6602352,77.2406338 L58.6602352,83.0741764 C58.6602352,83.5770686 58.7229408,84.0070409 58.8459397,84.3615791 C58.9713503,84.7136034 59.1425842,85.0002516 59.3596414,85.2190092 C59.5766981,85.4377673 59.8347546,85.5986926 60.1313992,85.6967568 C60.4280437,85.79482 60.746394,85.8451098 61.0864501,85.8451098 C61.4240944,85.8451098 61.7424442,85.79482 62.0390888,85.6967568 C62.3357333,85.5986926 62.5937898,85.4377673 62.810847,85.2190092 C63.030316,85.0002516 63.1991377,84.7136034 63.3245483,84.3615791 C63.4499594,84.0070409 63.5102527,83.5770686 63.5102527,83.0741764 L63.5102527,77.2406338 L65.6880576,77.2406338 L65.6880576,83.2828766 Z" id="Shape" fill="#FFFFFF"></path>
                </g>
            </g>
        </g>
    </g>
</svg>