<?xml version="1.0" encoding="UTF-8"?>
<svg width="200px" height="120px" viewBox="0 0 200 120" version="1.1" xmlns="http://www.w3.org/2000/svg" xmlns:xlink="http://www.w3.org/1999/xlink">
    <!-- Generator: Sketch 56.3 (81716) - https://sketch.com -->
    <title>large/direct-debit</title>
    <desc>Created with Sketch.</desc>
    <g id="Rounded" stroke="none" stroke-width="1" fill="none" fill-rule="evenodd">
        <g id="Large" transform="translate(-32.000000, -3564.000000)">
            <g id="large/direct-debit" transform="translate(32.000000, 3564.000000)">
                <rect id="Background" fill="#000000" x="0" y="0" width="200" height="120" rx="8"></rect>
                <g id="Logo" transform="translate(20.000000, 32.000000)" fill="#FFFFFF">
                    <g id="dd">
                        <path d="M75.1927684,11.5466897 L83.4332203,11.5466897 C83.4332203,11.5466897 91.5905085,11.3826207 91.5082486,18.737931 C91.4259887,24.214069 83.5977401,25.0308276 83.5977401,25.0308276 L75.1927684,25.0308276 L75.1927684,11.5466897 L75.1927684,11.5466897 L75.1927684,11.5466897 Z M99.8436158,37.9456552 C100.075028,39.0161379 100.854237,40.1942069 103.456723,40.3143448 C106.917062,40.395931 108.894915,39.0887586 108.894915,39.0887586 L108.894915,41.6224138 C108.894915,41.6224138 105.104633,42.5216552 103.291299,42.5216552 C101.39661,42.5216552 95.7929944,42.1128276 95.7929944,36.963931 C95.7929944,32.7958621 100.407684,31.4877931 103.04452,31.4877931 C107.659209,31.6518621 109.883842,33.2862759 109.801582,37.9438621 C109.800678,38.0128966 102.208362,37.9617931 99.8436158,37.9456552 L99.8436158,37.9456552 L99.8436158,37.9456552 Z M99.8535593,35.9006207 L106.175819,35.9006207 C106.175819,35.9006207 106.175819,33.5301379 103.12678,33.5301379 C100.832542,33.5310345 100.08226,34.7575172 99.8535593,35.9006207 L99.8535593,35.9006207 L99.8535593,35.9006207 Z M119.854463,33.3418621 C120.767458,32.3583448 122.303277,31.5693793 124.880452,31.5693793 C129.989605,31.5693793 130.813107,35.8190345 130.730847,36.9630345 C130.648588,38.1070345 130.236384,42.4391724 124.303729,42.4391724 C122.063729,42.4391724 120.692429,41.6806897 119.854463,40.7384138 L119.854463,42.111931 L115.816497,42.111931 L115.816497,27.4013103 L119.854463,27.4013103 L119.854463,33.3418621 L119.854463,33.3418621 L119.854463,33.3418621 Z M123.314802,40.1502759 C125.704859,40.0686897 126.775141,38.0254483 126.775141,37.0446207 C126.775141,36.0637931 126.198418,34.0205517 123.149379,34.0205517 C120.782825,34.0205517 120.063277,35.7930345 119.853559,36.66 L119.853559,37.726 C120.060565,38.6091034 120.785537,40.1502759 123.314802,40.1502759 L123.314802,40.1502759 L123.314802,40.1502759 Z M158.170395,39.7423448 L158.252655,42.0303448 C158.252655,42.0303448 156.357062,42.4391724 155.121356,42.4391724 C153.88565,42.4391724 150.671186,41.7031034 150.671186,38.5983448 L150.671186,33.8582759 L147.293107,33.8582759 L147.293107,31.7334483 L150.671186,31.7334483 L150.671186,29.1997931 L154.791412,29.1997931 L154.791412,31.7334483 L158.170395,31.7334483 L158.170395,33.8582759 L154.791412,33.8582759 L154.791412,37.9447586 C154.791412,37.9447586 154.791412,39.988 156.439322,39.988 C158.088136,39.9871034 158.170395,39.7423448 158.170395,39.7423448 L158.170395,39.7423448 L158.170395,39.7423448 Z M145.645198,13.7531034 L150.424407,13.7531034 L150.424407,25.1133103 L154.462373,25.1133103 L154.462373,13.7531034 L159.323842,13.7531034 L159.323842,11.3826207 L145.645198,11.3826207 L145.645198,13.7531034 L145.645198,13.7531034 L145.645198,13.7531034 Z M143.997288,14.3251034 L144.491751,11.9546207 C144.491751,11.9546207 142.431638,11.0553793 138.805876,11.0553793 C135.263277,11.0553793 129.577401,13.0170345 129.577401,18.3291034 C129.577401,23.5595862 135.592316,25.358069 139.300339,25.358069 C143.008362,25.358069 144.244068,24.786069 144.244068,24.786069 L143.831864,22.1708276 C143.831864,22.1708276 142.183955,22.6612414 139.381695,22.6612414 C136.662599,22.5796552 133.861243,20.4548276 133.861243,18.0843448 C133.943503,15.9595172 136.415819,13.5890345 139.629379,13.5890345 C142.101695,13.589931 143.997288,14.3251034 143.997288,14.3251034 L143.997288,14.3251034 L143.997288,14.3251034 Z M107.576045,11.4651034 C107.576045,11.4651034 114.333107,11.1378621 114.333107,15.0611724 C114.333107,18.4115862 110.460565,18.6572414 110.460565,18.6572414 C110.460565,18.6572414 111.531751,18.8204138 112.026215,19.5564828 C112.438418,20.210069 115.157514,25.1142069 115.157514,25.1142069 L111.037288,25.1142069 C111.037288,25.1142069 110.378305,24.2974483 110.048362,23.7254483 C109.800678,23.1534483 109.059435,21.9278621 109.059435,21.9278621 C109.059435,21.9278621 108.482712,19.8846207 106.504859,19.8846207 C106.455141,19.8846207 105.648814,19.8541379 105.021469,19.8308276 L105.021469,25.1151034 L101.065763,25.1151034 L101.065763,11.4668966 L107.576045,11.4668966 L107.576045,11.4651034 L107.576045,11.4651034 Z M105.021469,17.593931 L107.163842,17.593931 C107.163842,17.593931 110.130621,17.4307586 110.295141,15.6322759 C110.377401,13.9162759 107.411525,13.6715172 107.411525,13.6715172 L105.021469,13.6715172 L105.021469,17.593931 L105.021469,17.593931 L105.021469,17.593931 Z M121.584633,19.7187586 L128.176271,19.7187586 L128.176271,17.1851034 L121.584633,17.1851034 L121.584633,14.0794483 L128.753898,14.0794483 L128.753898,11.4642069 L117.547571,11.4642069 L117.547571,25.1124138 L128.836158,25.1124138 L128.836158,22.6603448 L121.584633,22.6603448 L121.584633,19.7187586 L121.584633,19.7187586 L121.584633,19.7187586 Z M137.652429,30.1797241 L141.690395,30.1797241 L141.690395,27.4013103 L137.652429,27.4013103 L137.652429,30.1797241 L137.652429,30.1797241 L137.652429,30.1797241 Z M137.652429,42.111931 L141.690395,42.111931 L141.690395,31.7325517 L137.652429,31.7325517 L137.652429,42.111931 L137.652429,42.111931 L137.652429,42.111931 Z M93.6506215,25.1133103 L97.6063277,25.1133103 L97.6063277,11.4651034 L93.6506215,11.4651034 L93.6506215,25.1133103 L93.6506215,25.1133103 L93.6506215,25.1133103 Z M75.1927684,28.5453103 L83.4332203,28.5453103 C83.4332203,28.5453103 91.5905085,28.3812414 91.5082486,35.7365517 C91.4259887,41.2126897 83.5977401,42.0294483 83.5977401,42.0294483 L75.1927684,42.0294483 L75.1927684,28.5453103 L75.1927684,28.5453103 L75.1927684,28.5453103 Z M79.2307345,39.4966897 L81.8675706,39.4966897 C81.8675706,39.4966897 87.3057627,39.1694483 87.3057627,35.0013793 C87.3057627,30.8333103 81.5376271,30.4244828 81.5376271,30.4244828 L79.2298305,30.4244828 L79.2298305,39.4966897 L79.2307345,39.4966897 L79.2307345,39.4966897 Z M79.2307345,22.498069 L81.8675706,22.498069 C81.8675706,22.498069 87.3057627,22.0892414 87.3057627,18.0027586 C87.3057627,13.7531034 81.5376271,13.4258621 81.5376271,13.4258621 L79.2298305,13.4258621 L79.2298305,22.498069 L79.2307345,22.498069 L79.2307345,22.498069 Z" id="Shape"></path>
                        <path d="M38.1948023,19.6712414 L38.1948023,47.0151724 C38.1948023,47.0151724 22.2092655,44.1551724 22.2092655,33.2853793 C22.2092655,24.6166207 34.0429379,20.7964138 38.1948023,19.6712414 L38.1948023,19.6712414 L38.1948023,19.6712414 Z M38.1948023,19.1611034 C28.5866667,18.4716552 6.80045198,22.9382759 6.80045198,32.7133793 C6.80045198,39.0878621 18.3367232,48.4048276 37.1236158,48.6504828 C37.8648588,48.6504828 59.2072316,47.8328276 58.8772881,25.1133103 C58.600678,6.032 44.199774,2.68875862 39.5959322,2.1077931 L39.5959322,0.944068966 C57.9534463,2.09972414 72.3914124,13.0493103 72.3914124,26.3388966 C72.3914124,40.395931 56.240452,51.8377241 36.3823729,51.8377241 C16.5233898,51.8377241 0.45559322,40.395931 0.45559322,26.3388966 C0.45559322,12.2818621 16.5233898,0.840068966 36.3823729,0.840068966 C36.9907345,0.840068966 37.5945763,0.850827586 38.1948023,0.872344828 L38.1948023,19.1611034 L38.1948023,19.1611034 L38.1948023,19.1611034 Z" id="Shape"></path>
                    </g>
                </g>
            </g>
        </g>
    </g>
</svg>