<?xml version="1.0" encoding="UTF-8"?>
<svg width="200px" height="120px" viewBox="0 0 200 120" version="1.1" xmlns="http://www.w3.org/2000/svg" xmlns:xlink="http://www.w3.org/1999/xlink">
    <!-- Generator: Sketch 56.3 (81716) - https://sketch.com -->
    <title>large/klarna-1</title>
    <desc>Created with Sketch.</desc>
    <g id="Rounded" stroke="none" stroke-width="1" fill="none" fill-rule="evenodd">
        <g id="Large" transform="translate(-32.000000, -1156.000000)">
            <g id="large/klarna-1" transform="translate(32.000000, 1156.000000)">
                <rect id="Background" fill="#FC81A0" x="0" y="0" width="200" height="120" rx="8"></rect>
                <g id="Logo" transform="translate(24.000000, 40.000000)" fill="#FFFFFF" fill-rule="nonzero">
                    <g id="klarna">
                        <path d="M28.1501104,0 L20.2737307,0 C20.2737307,6.45882353 17.3068433,12.3529412 12.1501104,16.2352941 L9.0419426,18.5647059 L21.1214128,35.0117647 L31.0463576,35.0117647 L19.9205298,19.8705882 C25.183223,14.6470588 28.1501104,7.58823529 28.1501104,0 Z" id="Shape"></path>
                        <rect id="Rectangle-path" x="0" y="0" width="8.05298013" height="35.0117647"></rect>
                        <rect id="Rectangle-path" x="33.3774834" y="0" width="7.59381898" height="35.0117647"></rect>
                        <path d="M107.584989,10.1294118 C104.688742,10.1294118 101.933775,11.0117647 100.09713,13.5176471 L100.09713,10.8 L92.8918322,10.8 L92.8918322,35.0117647 L100.203091,35.0117647 L100.203091,22.3058824 C100.203091,18.6352941 102.675497,16.8352941 105.642384,16.8352941 C108.821192,16.8352941 110.657837,18.7411765 110.657837,22.2705882 L110.657837,35.0470588 L117.898455,35.0470588 L117.898455,19.6235294 C117.898455,13.9764706 113.412804,10.1294118 107.584989,10.1294118 Z" id="Shape"></path>
                        <path d="M63.9293598,10.8 L63.9293598,12.3529412 C61.8807947,10.9411765 59.4083885,10.1294118 56.7240618,10.1294118 C49.6600442,10.1294118 43.9381898,15.8470588 43.9381898,22.9058824 C43.9381898,29.9647059 49.6600442,35.6823529 56.7240618,35.6823529 C59.4083885,35.6823529 61.8807947,34.8705882 63.9293598,33.4588235 L63.9293598,35.0117647 L71.1699779,35.0117647 L71.1699779,10.8 L63.9293598,10.8 Z M57.3245033,29.1176471 C53.6865342,29.1176471 50.7549669,26.3294118 50.7549669,22.9058824 C50.7549669,19.4823529 53.6865342,16.6941176 57.3245033,16.6941176 C60.9624724,16.6941176 63.8940397,19.4823529 63.8940397,22.9058824 C63.8940397,26.3294118 60.9624724,29.1176471 57.3245033,29.1176471 Z" id="Shape"></path>
                        <path d="M82.401766,13.9411765 L82.401766,10.8 L74.9845475,10.8 L74.9845475,35.0117647 L82.4370861,35.0117647 L82.4370861,23.7176471 C82.4370861,19.9058824 86.5695364,17.8588235 89.4304636,17.8588235 C89.4657837,17.8588235 89.5011038,17.8588235 89.5011038,17.8588235 L89.5011038,10.8 C86.5695364,10.8 83.8498896,12.0705882 82.401766,13.9411765 Z" id="Shape"></path>
                        <path d="M140.432671,10.8 L140.432671,12.3529412 C138.384106,10.9411765 135.9117,10.1294118 133.227373,10.1294118 C126.163355,10.1294118 120.441501,15.8470588 120.441501,22.9058824 C120.441501,29.9647059 126.163355,35.6823529 133.227373,35.6823529 C135.9117,35.6823529 138.384106,34.8705882 140.432671,33.4588235 L140.432671,35.0117647 L147.673289,35.0117647 L147.673289,10.8 L140.432671,10.8 Z M133.827815,29.1176471 C130.189845,29.1176471 127.258278,26.3294118 127.258278,22.9058824 C127.258278,19.4823529 130.189845,16.6941176 133.827815,16.6941176 C137.465784,16.6941176 140.397351,19.4823529 140.397351,22.9058824 C140.432671,26.3294118 137.465784,29.1176471 133.827815,29.1176471 Z" id="Shape"></path>
                        <path d="M153.289183,11.5062979 C153.289183,11.153097 153.041943,10.9411765 152.653422,10.9411765 L151.98234,10.9411765 L151.98234,12.7778211 L152.300221,12.7778211 L152.300221,12.1067394 L152.653422,12.1067394 L152.935982,12.7778211 L153.289183,12.7778211 L152.971302,12.0360992 C153.183223,11.9301389 153.289183,11.7535385 153.289183,11.5062979 Z M152.653422,11.7888586 L152.300221,11.7888586 L152.300221,11.2237372 L152.653422,11.2237372 C152.865342,11.2237372 152.971302,11.3296974 152.971302,11.5062979 C152.971302,11.6828983 152.900662,11.7888586 152.653422,11.7888586 Z" id="Shape"></path>
                        <path d="M152.547461,10.1647059 C151.593819,10.1647059 150.816777,10.9411765 150.816777,11.8941176 C150.852097,12.8470588 151.593819,13.6235294 152.547461,13.6235294 C153.501104,13.6235294 154.278146,12.8470588 154.278146,11.8941176 C154.278146,10.9411765 153.501104,10.1647059 152.547461,10.1647059 Z M152.547461,13.3058824 C151.770419,13.3058824 151.169978,12.6705882 151.169978,11.8941176 C151.169978,11.1176471 151.80574,10.4823529 152.547461,10.4823529 C153.324503,10.4823529 153.924945,11.1176471 153.924945,11.8941176 C153.924945,12.6705882 153.289183,13.3058824 152.547461,13.3058824 Z" id="Shape"></path>
                        <path d="M155.408389,26.4352941 C152.900662,26.4352941 150.852097,28.4823529 150.852097,30.9882353 C150.852097,33.4941176 152.900662,35.5411765 155.408389,35.5411765 C157.916115,35.5411765 159.96468,33.4941176 159.96468,30.9882353 C159.96468,28.4470588 157.916115,26.4352941 155.408389,26.4352941 Z" id="Shape"></path>
                    </g>
                </g>
            </g>
        </g>
    </g>
</svg>