<?xml version="1.0" encoding="UTF-8"?>
<svg width="200px" height="120px" viewBox="0 0 200 120" version="1.1" xmlns="http://www.w3.org/2000/svg" xmlns:xlink="http://www.w3.org/1999/xlink">
    <!-- Generator: Sketch 56.3 (81716) - https://sketch.com -->
    <title>large/maestro</title>
    <desc>Created with Sketch.</desc>
    <g id="Rounded" stroke="none" stroke-width="1" fill="none" fill-rule="evenodd">
        <g id="Large" transform="translate(-32.000000, -592.000000)">
            <g id="large/maestro" transform="translate(32.000000, 592.000000)">
                <rect id="Background" fill="#10427A" x="0" y="0" width="200" height="120" rx="8"></rect>
                <g id="Logo" transform="translate(52.000000, 20.000000)" fill-rule="nonzero">
                    <g id="maestro">
                        <polygon id="Shape" fill="#6C6BBD" points="63.5201004 56.8813581 36.4800527 56.8813581 36.4800527 6.80785771 63.5201004 6.80785771"></polygon>
                        <path d="M38.1963746,31.8456283 C38.1963746,42.0032682 42.8117699,51.0514035 49.9991336,56.8823787 C44.743202,61.1462792 38.1099221,63.6912574 30.9009455,63.6912574 C13.8343959,63.6912574 -1.50993339e-06,49.4337125 -1.50993339e-06,31.8456283 C-1.50993339e-06,14.2575441 13.8343959,-4.02515722e-07 30.9009455,-4.02515722e-07 C38.1099221,-4.02515722e-07 44.743202,2.54497738 49.9991336,6.80887809 C42.8117699,12.6398534 38.1963746,21.6879885 38.1963746,31.8456283" id="Shape" fill="#D32011" transform="translate(24.999566, 31.845628) scale(-1, 1) rotate(-180.000000) translate(-24.999566, -31.845628) "></path>
                        <path d="M99.9999977,31.8456283 C99.9999977,14.2575441 86.1656,-4.02515722e-07 69.0990508,-4.02515722e-07 C61.8900742,-4.02515722e-07 55.2567937,2.54497738 49.9988977,6.80887809 C57.1882262,12.6398534 61.8036215,21.6879885 61.8036215,31.8456283 C61.8036215,42.0032682 57.1882262,51.0514035 49.9988977,56.8823787 C55.2567937,61.1462792 61.8900742,63.6912574 69.0990508,63.6912574 C86.1656,63.6912574 99.9999977,49.4337125 99.9999977,31.8456283" id="Shape" fill="#0099DF" transform="translate(74.999448, 31.845628) scale(-1, 1) rotate(-180.000000) translate(-74.999448, -31.845628) "></path>
                    </g>
                    <path d="M75.6108191,81.4992824 C76.0170579,81.4992824 76.600888,81.4239597 77.0470849,81.2539453 L76.425517,79.4117645 C75.9992987,79.5817789 75.5730808,79.6377332 75.1646217,79.6377332 C73.8460099,79.6377332 73.1867038,78.8113346 73.1867038,77.3263988 L73.1867038,72.2862268 L71.1688281,72.2862268 L71.1688281,81.2733141 L73.1667251,81.2733141 L73.1667251,80.1822096 C73.690618,80.9720231 74.4475987,81.4992824 75.6108191,81.4992824 L75.6108191,81.4992824 Z M68.1564434,79.4870877 L64.8599132,79.4870877 L64.8599132,75.426112 C64.8599132,74.5243902 65.1884566,73.9218077 66.1985045,73.9218077 C66.7223974,73.9218077 67.3817035,74.091822 67.9810725,74.4296986 L68.5626822,72.7575321 C67.9233556,72.324964 66.9155275,72.0602581 66.0431127,72.0602581 C63.6567356,72.0602581 62.8242785,73.3020086 62.8242785,75.3895264 L62.8242785,79.4870877 L60.9418156,79.4870877 L60.9418156,81.2733141 L62.8242785,81.2733141 L62.8242785,84 L64.8599132,84 L64.8599132,81.2733141 L68.1564434,81.2733141 L68.1564434,79.4870877 L68.1564434,79.4870877 Z M42.3413948,77.5695842 C42.5567239,78.8672886 43.3692019,79.7517932 44.8054678,79.7517932 C46.104101,79.7517932 46.9387776,78.9619797 47.1518867,77.5695842 L42.3413948,77.5695842 Z M49.2474587,76.7797707 C49.2274801,79.5817789 47.4426918,81.4992824 44.843206,81.4992824 C42.1282861,81.4992824 40.2280641,79.5817789 40.2280641,76.7797707 C40.2280641,73.9239598 42.205982,72.0624102 44.9808392,72.0624102 C46.3771469,72.0624102 47.655801,72.4002872 48.7812831,73.3213774 L47.7912138,74.7697272 C47.0164739,74.1671448 46.026405,73.8292682 45.0962729,73.8292682 C43.7976402,73.8292682 42.6144407,74.4124823 42.3236361,76.0286944 L49.207501,76.0286944 C49.2274801,76.2740315 49.2474587,76.5172165 49.2474587,76.7797707 L49.2474587,76.7797707 Z M58.1092416,78.9791968 C57.5476109,79.3192255 56.4043696,79.7517932 55.2211706,79.7517932 C54.115668,79.7517932 53.4563614,79.3558106 53.4563614,78.6972742 C53.4563614,78.0968434 54.1534058,77.9268291 55.0258206,77.8149213 L55.9759318,77.6836441 C57.9938074,77.3995699 59.2147447,76.5731708 59.2147447,74.9935438 C59.2147447,73.2826402 57.6630446,72.0602581 54.9880824,72.0602581 C53.4741206,72.0602581 52.0778129,72.4368723 50.9723098,73.2266858 L51.9224206,74.7503589 C52.6017057,74.242468 53.6117537,73.8098994 55.0080614,73.8098994 C56.3843905,73.8098994 57.1213926,74.2037303 57.1213926,74.9010044 C57.1213926,75.4067431 56.5974997,75.6908178 55.4919966,75.8393113 L54.5418859,75.9705879 C52.4662925,76.2546627 51.3408108,77.1563844 51.3408108,78.621951 C51.3408108,80.4081779 52.8547726,81.4992824 55.2011915,81.4992824 C56.6751956,81.4992824 58.0137865,81.178623 58.9816564,80.5588238 L58.1092416,78.9791968 L58.1092416,78.9791968 Z M82.983059,79.6420374 C82.5679402,79.6420374 82.1838999,79.5710188 81.8264983,79.4311334 C81.4713167,79.2890962 81.1627529,79.0911047 80.9030259,78.8371593 C80.6432993,78.5832138 80.4390697,78.2776187 80.2903376,77.9225254 C80.141605,77.5674317 80.0683493,77.1757533 80.0683493,76.7496414 C80.0683493,76.3213775 80.141605,75.9318507 80.2903376,75.5767575 C80.4390697,75.2216642 80.6432993,74.9160686 80.9030259,74.6621231 C81.1627529,74.4081777 81.4713167,74.2101862 81.8264983,74.068149 C82.1838999,73.9261119 82.5679402,73.8572454 82.983059,73.8572454 C83.3981774,73.8572454 83.7844372,73.9261119 84.1396193,74.068149 C84.4970204,74.2101862 84.8078045,74.4081777 85.0675315,74.6621231 C85.3316979,74.9160686 85.535927,75.2216642 85.6868795,75.5767575 C85.8356117,75.9318507 85.9088678,76.3213775 85.9088678,76.7496414 C85.9088678,77.1757533 85.8356117,77.5674317 85.6868795,77.9225254 C85.535927,78.2776187 85.3316979,78.5832138 85.0675315,78.8371593 C84.8078045,79.0911047 84.4970204,79.2890962 84.1396193,79.4311334 C83.7844372,79.5710188 83.3981774,79.6420374 82.983059,79.6420374 L82.983059,79.6420374 Z M82.9830586,81.4992824 C83.7023015,81.4992824 84.3682673,81.3787662 84.9809556,81.1355812 C85.5936439,80.8945479 86.1241964,80.5609759 86.5703934,80.1370157 C87.0188102,79.713056 87.3673326,79.2116214 87.6203995,78.6348636 C87.8734664,78.0559541 88,77.4275466 88,76.7496414 C88,76.0717358 87.8734664,75.4433287 87.6203995,74.8644192 C87.3673326,74.2876615 87.0188102,73.7840748 86.5703934,73.3601146 C86.1241964,72.9361548 85.5936439,72.6047345 84.9809556,72.3615496 C84.3682673,72.1205167 83.7023015,72 82.9830586,72 C82.2638157,72 81.5978499,72.1205167 80.9851616,72.3615496 C80.3724733,72.6047345 79.8463605,72.9361548 79.4023835,73.3601146 C78.9584064,73.7840748 78.609884,74.2876615 78.3568171,74.8644192 C78.1037503,75.4433287 77.9772166,76.0717358 77.9772166,76.7496414 C77.9772166,77.4275466 78.1037503,78.0559541 78.3568171,78.6348636 C78.609884,79.2116214 78.9584064,79.713056 79.4023835,80.1370157 C79.8463605,80.5609759 80.3724733,80.8945479 80.9851616,81.1355812 C81.5978499,81.3787662 82.2638157,81.4992824 82.9830586,81.4992824 L82.9830586,81.4992824 Z M30.5582427,76.7797707 C30.5582427,78.3593977 31.6260077,79.657102 33.3708376,79.657102 C35.0379716,79.657102 36.1634535,78.4153516 36.1634535,76.7797707 C36.1634535,75.1441893 35.0379716,73.904591 33.3708376,73.904591 C31.6260077,73.904591 30.5582427,75.2001437 30.5582427,76.7797707 L30.5582427,76.7797707 Z M38.0636753,76.7797707 L38.0636753,81.2733141 L36.0480196,81.2733141 L36.0480196,80.1822096 C35.4064726,80.9913915 34.4386027,81.4992824 33.1199907,81.4992824 C30.5205047,81.4992824 28.4848697,79.5258249 28.4848697,76.7797707 C28.4848697,74.0358681 30.5205047,72.0602581 33.1199907,72.0602581 C34.4386027,72.0602581 35.4064726,72.5681494 36.0480196,73.3773313 L36.0480196,72.2862268 L38.0636753,72.2862268 L38.0636753,76.7797707 Z M26.7000818,72.2862268 L26.7000818,77.9268291 C26.7000818,80.0509325 25.3037737,81.479914 23.0550297,81.4992824 C21.8718307,81.5186517 20.6486738,81.1614059 19.7962378,79.900287 C19.1569108,80.8967004 18.146863,81.4992824 16.730576,81.4992824 C15.742727,81.4992824 14.772637,81.2173602 14.015656,80.1649929 L14.015656,81.2733141 L12,81.2733141 L12,72.2862268 L14.035635,72.2862268 L14.035635,77.2682927 C14.035635,78.8285509 14.928029,79.657102 16.3043579,79.657102 C17.642949,79.657102 18.3222339,78.8113346 18.3222339,77.2876611 L18.3222339,72.2862268 L20.3578689,72.2862268 L20.3578689,77.2682927 C20.3578689,78.8285509 21.2902208,79.657102 22.6265919,79.657102 C24.0051407,79.657102 24.6644468,78.8113346 24.6644468,77.2876611 L24.6644468,72.2862268 L26.7000818,72.2862268 L26.7000818,72.2862268 Z" id="Shape" fill="#FFFFFF" transform="translate(50.000000, 78.000000) scale(-1, 1) rotate(-180.000000) translate(-50.000000, -78.000000) "></path>
                </g>
            </g>
        </g>
    </g>
</svg>