<?xml version="1.0" encoding="UTF-8"?>
<svg width="200px" height="120px" viewBox="0 0 200 120" version="1.1" xmlns="http://www.w3.org/2000/svg" xmlns:xlink="http://www.w3.org/1999/xlink">
    <!-- Generator: Sketch 56.3 (81716) - https://sketch.com -->
    <title>large/mastercard</title>
    <desc>Created with Sketch.</desc>
    <g id="Rounded" stroke="none" stroke-width="1" fill="none" fill-rule="evenodd">
        <g id="Large" transform="translate(-32.000000, -404.000000)">
            <g id="large/mastercard" transform="translate(32.000000, 404.000000)">
                <rect id="Background" fill="#10427A" x="0" y="0" width="200" height="120" rx="8"></rect>
                <g id="Logo" transform="translate(52.000000, 20.000000)" fill-rule="nonzero">
                    <g id="mastercard">
                        <rect id="Rectangle-path" fill="#FF5F00" x="36.444549" y="6.79534022" width="27.0118354" height="49.9501544"></rect>
                        <path d="M38.1595777,31.7704094 C38.1595777,21.621526 42.7901781,12.6199079 49.9075824,6.79533142 C44.6767188,2.55927578 38.0738258,-7.82864208e-06 30.8706697,-7.82864208e-06 C13.8060499,-7.82864208e-06 6.74147421e-07,14.2084287 6.74147421e-07,31.7704094 C6.74147421e-07,49.3323899 13.8060499,63.5408265 30.8706697,63.5408265 C38.0738258,63.5408265 44.6767188,60.9815429 49.9075824,56.7454874 C42.7901781,51.0091618 38.1595777,41.9192929 38.1595777,31.7704094 Z" id="Shape" fill="#EB001B"></path>
                        <path d="M99.900916,31.7704094 C99.900916,49.3323899 86.0948668,63.5408265 69.0302469,63.5408265 C61.8270906,63.5408265 55.2241973,60.9815429 49.9933344,56.7454874 C57.1964902,50.920911 61.7413387,41.9192929 61.7413387,31.7704094 C61.7413387,21.621526 57.1107383,12.6199079 49.9933344,6.79533142 C55.2241973,2.55927578 61.8270906,-7.82864208e-06 69.0302469,-7.82864208e-06 C86.0948668,-7.82864208e-06 99.900916,14.2966799 99.900916,31.7704094 Z" id="Shape" fill="#F79E1B"></path>
                    </g>
                    <path d="M14.5714286,83.8235292 L14.5714286,78.5294113 C14.5714286,76.4999997 13.2380952,75.1764701 10.9523809,75.1764701 C9.80952379,75.1764701 8.57142853,75.5294112 7.71428569,76.6764701 C7.04761902,75.705882 6.09523806,75.1764701 4.66666666,75.1764701 C3.71428569,75.1764701 2.76190473,75.4411763 2,76.4117648 L2,75.3529409 L0,75.3529409 L0,83.8235292 L2,83.8235292 L2,79.1470587 C2,77.6470586 2.85714284,76.9411763 4.19047618,76.9411763 C5.52380951,76.9411763 6.19047617,77.7352936 6.19047617,79.1470587 L6.19047617,83.8235292 L8.19047617,83.8235292 L8.19047617,79.1470587 C8.19047617,77.6470586 9.14285713,76.9411763 10.3809523,76.9411763 C11.7142857,76.9411763 12.3809524,77.7352936 12.3809524,79.1470587 L12.3809524,83.8235292 L14.5714286,83.8235292 L14.5714286,83.8235292 Z M44.1904762,75.3529409 L40.9523808,75.3529409 L40.9523808,72.7941173 L38.9523812,72.7941173 L38.9523812,75.3529409 L37.1428572,75.3529409 L37.1428572,77.0294113 L38.9523812,77.0294113 L38.9523812,80.9117645 C38.9523812,82.8529411 39.8095237,84 42.0952384,84 C42.9523809,84 43.904762,83.7352938 44.5714285,83.3823527 L44.0000002,81.7941173 C43.4285714,82.1470584 42.7619049,82.2352938 42.2857143,82.2352938 C41.3333336,82.2352938 40.9523808,81.7058822 40.9523808,80.8235291 L40.9523808,77.0294113 L44.1904762,77.0294113 L44.1904762,75.3529409 L44.1904762,75.3529409 Z M61.1428572,75.1764701 C60.0000001,75.1764701 59.2380954,75.705882 58.7619047,76.4117648 L58.7619047,75.3529409 L56.7619047,75.3529409 L56.7619047,83.8235292 L58.7619047,83.8235292 L58.7619047,79.0588233 C58.7619047,77.6470586 59.4285713,76.8529409 60.6666666,76.8529409 C61.047619,76.8529409 61.5238096,76.9411763 61.9047619,77.0294113 L62.4761907,75.2647055 C62.0952383,75.1764701 61.5238096,75.1764701 61.1428572,75.1764701 L61.1428572,75.1764701 L61.1428572,75.1764701 Z M35.5238095,76.0588232 C34.5714286,75.4411763 33.2380953,75.1764701 31.8095238,75.1764701 C29.5238096,75.1764701 27.9999999,76.235294 27.9999999,77.9117644 C27.9999999,79.3235295 29.1428572,80.1176468 31.142857,80.382353 L32.0952382,80.470588 C33.1428571,80.6470583 33.7142856,80.9117645 33.7142856,81.3529411 C33.7142856,81.970588 32.9523809,82.4117646 31.6190475,82.4117646 C30.2857143,82.4117646 29.2380952,81.970588 28.5714284,81.5294114 L27.6190475,82.9411765 C28.6666666,83.6470584 30.0952381,84 31.5238094,84 C34.1904762,84 35.7142857,82.8529411 35.7142857,81.2647057 C35.7142857,79.7647056 34.4761904,78.9705883 32.5714285,78.7058821 L31.6190475,78.6176467 C30.7619047,78.5294113 30.0952381,78.352941 30.0952381,77.8235294 C30.0952381,77.2058821 30.7619047,76.8529409 31.8095238,76.8529409 C32.9523809,76.8529409 34.095238,77.2941175 34.6666665,77.5588232 L35.5238095,76.0588232 L35.5238095,76.0588232 Z M88.6666667,75.1764701 C87.5238096,75.1764701 86.7619049,75.705882 86.2857143,76.4117648 L86.2857143,75.3529409 L84.2857143,75.3529409 L84.2857143,83.8235292 L86.2857143,83.8235292 L86.2857143,79.0588233 C86.2857143,77.6470586 86.9523809,76.8529409 88.1904762,76.8529409 C88.5714285,76.8529409 89.0476191,76.9411763 89.4285715,77.0294113 L90.0000002,75.2647055 C89.6190479,75.1764701 89.0476191,75.1764701 88.6666667,75.1764701 L88.6666667,75.1764701 L88.6666667,75.1764701 Z M63.1428572,79.5882348 C63.1428572,82.1470584 65.0476191,84 68.0000002,84 C69.3333333,84 70.2857144,83.7352938 71.2380952,83.0294115 L70.2857144,81.5294114 C69.5238097,82.0588234 68.761905,82.3235292 67.904762,82.3235292 C66.2857144,82.3235292 65.1428572,81.2647057 65.1428572,79.5882348 C65.1428572,77.9999998 66.2857144,76.9411763 67.904762,76.8529409 C68.761905,76.8529409 69.5238097,77.1176467 70.2857144,77.6470586 L71.2380952,76.1470586 C70.2857144,75.4411763 69.3333333,75.1764701 68.0000002,75.1764701 C65.0476191,75.1764701 63.1428572,77.0294113 63.1428572,79.5882348 L63.1428572,79.5882348 L63.1428572,79.5882348 Z M81.6190477,79.5882348 L81.6190477,75.3529409 L79.6190477,75.3529409 L79.6190477,76.4117648 C78.9523811,75.6176466 78,75.1764701 76.7619047,75.1764701 C74.1904763,75.1764701 72.1904763,77.0294113 72.1904763,79.5882348 C72.1904763,82.1470584 74.1904763,84 76.7619047,84 C78.0952382,84 79.0476193,83.558823 79.6190477,82.7647057 L79.6190477,83.8235292 L81.6190477,83.8235292 L81.6190477,79.5882348 Z M74.2857145,79.5882348 C74.2857145,78.0882348 75.3333334,76.8529409 77.0476193,76.8529409 C78.666667,76.8529409 79.8095241,77.9999998 79.8095241,79.5882348 C79.8095241,81.0882349 78.666667,82.3235292 77.0476193,82.3235292 C75.3333334,82.2352938 74.2857145,81.0882349 74.2857145,79.5882348 L74.2857145,79.5882348 Z M50.3809523,75.1764701 C47.7142857,75.1764701 45.8095238,76.9411763 45.8095238,79.5882348 C45.8095238,82.2352938 47.7142857,84 50.4761905,84 C51.8095238,84 53.142857,83.6470584 54.1904759,82.8529411 L53.2380952,81.5294114 C52.4761905,82.0588234 51.5238094,82.4117646 50.5714287,82.4117646 C49.3333334,82.4117646 48.0952381,81.882353 47.8095238,80.382353 L54.5714283,80.382353 L54.5714283,79.6764701 C54.6666665,76.9411763 52.9523806,75.1764701 50.3809523,75.1764701 L50.3809523,75.1764701 L50.3809523,75.1764701 Z M50.3809523,76.7647055 C51.6190476,76.7647055 52.4761905,77.4705883 52.6666665,78.7941175 L47.9047621,78.7941175 C48.0952381,77.6470586 48.952381,76.7647055 50.3809523,76.7647055 L50.3809523,76.7647055 Z M100,79.5882348 L100,72 L98,72 L98,76.4117648 C97.3333334,75.6176466 96.3809523,75.1764701 95.1428574,75.1764701 C92.5714286,75.1764701 90.5714286,77.0294113 90.5714286,79.5882348 C90.5714286,82.1470584 92.5714286,84 95.1428574,84 C96.4761905,84 97.4285716,83.558823 98,82.7647057 L98,83.8235292 L100,83.8235292 L100,79.5882348 Z M92.6666668,79.5882348 C92.6666668,78.0882348 93.7142857,76.8529409 95.4285716,76.8529409 C97.0476193,76.8529409 98.1904764,77.9999998 98.1904764,79.5882348 C98.1904764,81.0882349 97.0476193,82.3235292 95.4285716,82.3235292 C93.7142857,82.2352938 92.6666668,81.0882349 92.6666668,79.5882348 L92.6666668,79.5882348 Z M25.8095239,79.5882348 L25.8095239,75.3529409 L23.8095239,75.3529409 L23.8095239,76.4117648 C23.1428571,75.6176466 22.1904762,75.1764701 20.9523809,75.1764701 C18.3809522,75.1764701 16.3809522,77.0294113 16.3809522,79.5882348 C16.3809522,82.1470584 18.3809522,84 20.9523809,84 C22.2857142,84 23.2380953,83.558823 23.8095239,82.7647057 L23.8095239,83.8235292 L25.8095239,83.8235292 L25.8095239,79.5882348 Z M18.3809523,79.5882348 C18.3809523,78.0882348 19.4285714,76.8529409 21.1428571,76.8529409 C22.7619047,76.8529409 23.9047618,77.9999998 23.9047618,79.5882348 C23.9047618,81.0882349 22.7619047,82.3235292 21.1428571,82.3235292 C19.4285714,82.2352938 18.3809523,81.0882349 18.3809523,79.5882348 Z" id="Shape" fill="#FFFFFF"></path>
                </g>
            </g>
        </g>
    </g>
</svg>