<?xml version="1.0" encoding="UTF-8"?>
<svg width="200px" height="120px" viewBox="0 0 200 120" version="1.1" xmlns="http://www.w3.org/2000/svg" xmlns:xlink="http://www.w3.org/1999/xlink">
    <!-- Generator: Sketch 56.3 (81716) - https://sketch.com -->
    <title>large/paypal</title>
    <desc>Created with Sketch.</desc>
    <g id="Rounded" stroke="none" stroke-width="1" fill="none" fill-rule="evenodd">
        <g id="Large" transform="translate(-32.000000, -1532.000000)">
            <g id="large/paypal" transform="translate(32.000000, 1532.000000)">
                <rect id="Background" fill="#B9E8FF" x="0" y="0" width="200" height="120" rx="8"></rect>
                <g id="Logo" transform="translate(68.000000, 20.000000)" fill-rule="nonzero">
                    <g id="paypal">
                        <path d="M57.6853764,6.22702374 C53.9840517,2.01981365 47.2933657,0.216093599 38.7343287,0.216093599 L13.8930008,0.216093599 C12.1418364,0.216093599 10.6537889,1.48619475 10.3796167,3.20832845 L0.0362493927,68.6295632 C-0.169379757,69.9195097 0.832233199,71.0881791 2.14339541,71.0881791 L17.4793501,71.0881791 L21.3310273,46.7247282 L21.2116297,47.487671 C21.4858019,45.7655372 22.9627941,44.4954363 24.7117474,44.4954363 L31.9994214,44.4954363 C46.3160745,44.4954363 57.5261797,38.6961897 60.8007688,21.9202701 C60.8980556,21.4241369 60.9820762,20.9412338 61.0550413,20.469356 C60.641572,20.2510573 60.641572,20.2510573 61.0550413,20.469356 C62.0301214,14.2687927 61.0484081,10.0483524 57.6853764,6.22702374" id="Shape" fill="#27346A"></path>
                        <path d="M27.1991967,18.2356537 C27.6082441,18.0416105 28.0637235,17.9335637 28.5413138,17.9335637 L48.0163845,17.9335637 C50.3225264,17.9335637 52.4738936,18.0835062 54.4395314,18.3988265 C55.0033534,18.489233 55.5494866,18.5928697 56.0801424,18.7119417 C56.6107985,18.8288086 57.1259768,18.9611108 57.6256778,19.1066433 C57.8755281,19.1794095 58.1209565,19.2543807 58.3619626,19.333762 C59.3281985,19.6556974 60.2281026,20.0305536 61.0550413,20.469356 C62.0301214,14.2665876 61.0484081,10.0483524 57.6853764,6.22702374 C53.9818406,2.01981365 47.2933657,0.216093599 38.7343287,0.216093599 L13.8907898,0.216093599 C12.1418364,0.216093599 10.6537889,1.48619475 10.3796167,3.20832845 L0.0362493927,68.6273581 C-0.169379757,69.9195097 0.832233199,71.085974 2.14118435,71.085974 L17.4793501,71.085974 L25.4701431,20.5509423 C25.633762,19.514575 26.3015039,18.6656359 27.1991967,18.2356537 Z" id="Shape" fill="#27346A"></path>
                        <path d="M60.8007688,21.9202701 C57.5261797,38.6939846 46.3160745,44.4954363 31.9994214,44.4954363 L24.7095363,44.4954363 C22.960583,44.4954363 21.4835908,45.7655372 21.2116297,47.487671 L16.4202494,77.7804657 C16.241153,78.9094445 17.1167352,79.9325815 18.2620675,79.9325815 L31.1901712,79.9325815 C32.7202288,79.9325815 34.0225468,78.8212429 34.2613421,77.3152029 L34.3873726,76.658102 L36.8239675,61.2581253 L36.9809532,60.4069812 C37.2197485,58.9009412 38.5220664,57.7896026 40.052124,57.7896026 L41.9868069,57.7896026 C54.5102856,57.7896026 64.3163638,52.715813 67.1819055,38.0412938 C68.3780922,31.9090866 67.7589939,26.7889913 64.5949582,23.1925763 C63.6353555,22.1032882 62.4435909,21.2036332 61.0550413,20.469356 C60.9798651,20.9434389 60.8980556,21.4241369 60.8007688,21.9202701 L60.8007688,21.9202701 Z" id="Shape" fill="#2790C3"></path>
                        <path d="M57.6278888,19.1066433 C57.1281879,18.9611108 56.6130095,18.8288086 56.0823535,18.7119417 C55.5516977,18.5950747 55.0033534,18.491438 54.4417424,18.4010315 C52.4738936,18.0835062 50.3247374,17.9335637 48.0163845,17.9335637 L28.5435249,17.9335637 C28.0637235,17.9335637 27.6082441,18.0416105 27.2014078,18.2378588 C26.3015039,18.667841 25.635973,19.514575 25.4723541,20.5531474 L21.3332383,46.7247282 L21.2138408,47.487671 C21.4858019,45.7655372 22.9627941,44.4954363 24.7117474,44.4954363 L32.0016325,44.4954363 C46.3182855,44.4954363 57.5283907,38.6961897 60.8029799,21.9202701 C60.9002666,21.4241369 60.9820762,20.9434389 61.0572523,20.469356 C60.2281026,20.0327587 59.3304096,19.6556974 58.3641737,19.3359671 C58.1231676,19.2565857 57.8777391,19.1794095 57.6278888,19.1066433" id="Shape" fill="#1F264F"></path>
                    </g>
                </g>
            </g>
        </g>
    </g>
</svg>