<?xml version="1.0" encoding="UTF-8"?>
<svg width="200px" height="120px" viewBox="0 0 200 120" version="1.1" xmlns="http://www.w3.org/2000/svg" xmlns:xlink="http://www.w3.org/1999/xlink">
    <!-- Generator: Sketch 56.3 (81716) - https://sketch.com -->
    <title>large/solo</title>
    <desc>Created with Sketch.</desc>
    <g id="Rounded" stroke="none" stroke-width="1" fill="none" fill-rule="evenodd">
        <g id="Large" transform="translate(-32.000000, -1904.000000)">
            <g id="large/solo" transform="translate(32.000000, 1904.000000)">
                <rect id="Background" fill="#C93192" x="0" y="0" width="200" height="120" rx="8"></rect>
                <g id="Logo" transform="translate(61.000000, 20.000000)" fill-rule="nonzero">
                    <g id="solo">
                        <path d="M52.0747368,33.5005405 C58.4410526,43.0681081 55.6734737,55.8789189 45.8896842,62.1059459 C36.1147368,68.332973 23.0195789,65.6345946 16.6488421,56.067027 L22.7211579,52.0778378 C26.8592632,58.2875676 35.3653684,60.0475676 41.7184211,55.9978378 C48.0670526,51.9545946 49.8642105,43.6345946 45.7283158,37.4248649 L52.0725263,33.5027027 L52.0747368,33.5005405 Z" id="Shape" fill="#FFFFFF"></path>
                        <path d="M66.2,24.7243243 C59.8204211,15.1610811 46.7208421,12.4756757 36.9503158,18.7178378 C27.1797895,24.9621622 24.4298947,37.772973 30.8094737,47.3318919 L36.9923158,43.5048649 C32.8497895,37.2994595 34.6358947,28.9794595 40.9801053,24.9254054 C47.3309474,20.8691892 55.8348421,22.6205405 59.9817895,28.8259459 L66.2022105,24.7286486 L66.2,24.7243243 Z" id="Shape" fill="#000000"></path>
                        <path d="M0.856842105,39.5827027 C0.856842105,17.9027027 18.8284211,0.324324324 41,0.324324324 C63.1715789,0.324324324 81.1365263,17.9027027 81.1365263,39.5827027 C81.1365263,61.2691892 63.1693684,78.8410811 41,78.8410811 C18.8350526,78.8410811 0.863473684,61.267027 0.863473684,39.5827027 L0.856842105,39.5827027 Z M41,76.0951351 C61.6197895,76.0951351 78.3313684,59.7448649 78.3313684,39.5805405 C78.3313684,19.4162162 61.6153684,3.07027027 40.9955789,3.07027027 C20.3802105,3.07027027 3.66863158,19.4162162 3.66863158,39.5805405 C3.66863158,59.747027 20.3802105,76.0951351 40.9955789,76.0951351 L41,76.0951351 Z" id="Shape" fill="#FFFFFF"></path>
                    </g>
                </g>
            </g>
        </g>
    </g>
</svg>