<?xml version="1.0" encoding="UTF-8"?>
<svg width="200px" height="120px" viewBox="0 0 200 120" version="1.1" xmlns="http://www.w3.org/2000/svg" xmlns:xlink="http://www.w3.org/1999/xlink">
    <!-- Generator: Sketch 56.3 (81716) - https://sketch.com -->
    <title>large/visa-electron</title>
    <desc>Created with Sketch.</desc>
    <g id="Rounded" stroke="none" stroke-width="1" fill="none" fill-rule="evenodd">
        <g id="Large" transform="translate(-32.000000, -216.000000)">
            <g id="large/visa-electron" transform="translate(32.000000, 216.000000)">
                <rect id="Background" fill="#25459A" x="0" y="0" width="200" height="120" rx="8"></rect>
                <g id="Logo" transform="translate(32.000000, 32.000000)" fill="#FFFFFF" fill-rule="nonzero">
                    <path d="M50.1169484,0.768541166 L32.8356489,42.867901 L21.5603259,42.867901 L13.0553711,9.26896794 C12.5404046,7.20432042 12.0920213,6.44438552 10.5226797,5.5717083 C7.95796088,4.14908955 3.7227614,2.81855803 0,1.99063351 L0.251162078,0.768541166 L18.4031006,0.768541166 C20.713286,0.768541166 22.79338,2.33918801 23.3218318,5.05877378 L27.8157786,29.4223034 L38.9098942,0.768541166 L50.1169484,0.768541166 Z M65.3594525,0.768541166 L56.5401236,42.867901 L45.8733206,42.867901 L54.6926495,0.768541166 L65.3594525,0.768541166 Z M94.2936612,29.1228046 C94.3383308,18.0138132 79.2509066,17.3976033 79.3495173,12.4334986 C79.3857591,10.924817 80.7932782,9.31802373 83.874649,8.90750401 C85.4010063,8.70611699 89.6176638,8.54517943 94.3939575,10.7922802 L96.262502,1.85981799 C93.6960972,0.912266111 90.3939058,0 86.285973,0 C75.7413798,0 68.3236708,5.71887577 68.264673,13.9146401 C68.1955612,19.9769066 73.5626755,23.3557337 77.5989679,25.374768 C81.7566276,27.4368335 83.1506615,28.7622015 83.1312766,30.6048067 C83.1017777,33.4293893 79.8113858,34.6798824 76.7519285,34.7263562 C71.3873423,34.8132798 68.277315,33.2460753 65.7968793,32.0661538 L63.8609085,41.2946723 C66.3565155,42.462545 70.9558152,43.4772259 75.7194668,43.5288635 C86.9290496,43.5288635 94.2607911,37.8753955 94.2936612,29.1228046 L94.2936612,29.1228046 Z M122.138096,42.867901 L132,42.867901 L123.383792,0.768541166 L114.284646,0.768541166 C112.232365,0.768541166 110.507943,1.98460911 109.742658,3.85475463 L93.7373962,42.867901 L104.938551,42.867901 L107.160239,36.5792893 L120.845201,36.5792893 L122.138096,42.867901 Z M110.231496,27.9523501 L115.848087,12.1426062 L119.074424,27.9523501 L110.231496,27.9523501 Z M79.0104485,54.4560906 L74.6766384,54.4560906 L74.6766384,58.5750578 L79.5245725,58.5750578 L79.5245725,59.8135021 L73.2160213,59.8135021 L73.2160213,48.3860782 L79.2759387,48.3860782 L79.2759387,49.6245225 L74.6766384,49.6245225 L74.6766384,53.2348586 L79.0104485,53.2348586 L79.0104485,54.4560906 Z M81.7635385,47.7764092 L83.2241561,47.7764092 L83.2241561,59.8131578 L81.7635385,59.8131578 L81.7635385,47.7764092 Z M86.9087371,55.9813821 C86.9416072,57.9995555 88.187304,58.8300618 89.6639344,58.8300618 C90.7107243,58.8300618 91.3580147,58.6433054 91.8898375,58.4066326 L92.1553277,59.4746726 C91.6403611,59.7113453 90.7444374,59.9996562 89.465028,59.9996562 C86.9921771,59.9996562 85.5147037,58.3214307 85.5147037,55.8462632 C85.5147037,53.3710958 86.9416072,51.4381248 89.2829773,51.4381248 C91.9227076,51.4381248 92.6037111,53.7781735 92.6037111,55.2868549 C92.6037111,55.5915173 92.5868548,55.811838 92.5531417,55.9813821 L86.9087371,55.9813821 L86.9087371,55.9813821 Z M91.1919778,54.9133421 C91.2088341,53.9812819 90.8101776,52.5061645 89.1666672,52.5061645 C87.6723375,52.5061645 87.0410609,53.8797274 86.9247509,54.9133421 L91.1919778,54.9133421 Z M100.552738,59.5249333 C100.170937,59.7116897 99.3238976,60 98.2450807,60 C95.8211141,60 94.244187,58.321775 94.244187,55.8121824 C94.244187,53.2862382 95.9365811,51.4384689 98.5602977,51.4384689 C99.4233513,51.4384689 100.186951,51.6579293 100.585608,51.8791107 L100.254377,53.0151402 C99.9046048,52.8283838 99.3567682,52.6244148 98.5602977,52.6244148 C96.7170378,52.6244148 95.7216609,54.0315421 95.7216609,55.7278408 C95.7216609,57.626387 96.9167879,58.7959809 98.5105708,58.7959809 C99.3407544,58.7959809 99.8885915,58.592873 100.303261,58.4061166 L100.552738,59.5249333 Z M104.65081,49.6411325 L104.65081,51.6076686 L106.74186,51.6076686 L106.74186,52.7428376 L104.65081,52.7428376 L104.65081,57.1681883 C104.65081,58.1863124 104.933157,58.7620722 105.746483,58.7620722 C106.144297,58.7620722 106.37776,58.7285078 106.593523,58.6596574 L106.660106,59.7965478 C106.37776,59.8981017 105.929377,59.9996562 105.364683,59.9996562 C104.68368,59.9996562 104.135843,59.7621226 103.787756,59.3731186 C103.3891,58.9144039 103.223063,58.1863124 103.223063,57.2198264 L103.223063,52.7428376 L101.977366,52.7428376 L101.977366,51.6076686 L103.223063,51.6076686 L103.223063,50.0817743 L104.65081,49.6411325 Z M108.782679,54.1678656 C108.782679,53.2013801 108.764979,52.3708738 108.716096,51.6074965 L109.994662,51.6074965 L110.061245,53.234945 L110.11013,53.234945 C110.475916,52.1333404 111.37184,51.4379527 112.351203,51.4379527 C112.501226,51.4379527 112.617536,51.4551653 112.750702,51.471517 L112.750702,52.8795054 C112.600679,52.8450802 112.452342,52.8450802 112.25175,52.8450802 C111.223502,52.8450802 110.491929,53.6248093 110.293022,54.7444868 C110.260152,54.9475952 110.243296,55.2014803 110.243296,55.4398748 L110.243296,59.8135885 L108.782679,59.8135885 L108.782679,54.1678656 Z M121.730421,55.6425525 C121.730421,58.6771283 119.654541,59.9999142 117.728684,59.9999142 C115.570207,59.9999142 113.877813,58.3716056 113.877813,55.7785316 C113.877813,53.0486188 115.653647,51.4383828 117.861851,51.4383828 C120.169507,51.4383828 121.730421,53.1501727 121.730421,55.6425525 Z M115.371301,55.7277549 C115.371301,57.5247473 116.36752,58.881097 117.795267,58.881097 C119.190144,58.881097 120.235248,57.5410993 120.235248,55.6933297 C120.235248,54.3034151 119.555087,52.5563392 117.828138,52.5563392 C116.118887,52.5563392 115.371301,54.1846483 115.371301,55.7277549 Z M123.969135,53.828262 C123.969135,52.9641913 123.951435,52.2860159 123.902552,51.6078405 L125.197131,51.6078405 L125.280571,52.9641913 L125.313442,52.9641913 C125.712099,52.2008137 126.641735,51.4382967 127.970029,51.4382967 C129.081716,51.4382967 130.808666,52.1164722 130.808666,54.9298663 L130.808666,59.813072 L129.348049,59.813072 L129.348049,55.0830583 C129.348049,53.7611333 128.866795,52.6586681 127.488775,52.6586681 C126.542282,52.6586681 125.794695,53.3540556 125.530048,54.1845625 C125.462622,54.3713188 125.429752,54.625204 125.429752,54.8799499 L125.429752,59.813072 L123.969135,59.813072 L123.969135,53.828262 Z" id="Shape"></path>
                </g>
            </g>
        </g>
    </g>
</svg>