<?xml version="1.0" encoding="UTF-8"?>
<svg width="200px" height="120px" viewBox="0 0 200 120" version="1.1" xmlns="http://www.w3.org/2000/svg" xmlns:xlink="http://www.w3.org/1999/xlink">
    <!-- Generator: Sketch 56.3 (81716) - https://sketch.com -->
    <title>large/western-union</title>
    <desc>Created with Sketch.</desc>
    <g id="Rounded" stroke="none" stroke-width="1" fill="none" fill-rule="evenodd">
        <g id="Large" transform="translate(-32.000000, -3932.000000)">
            <g id="large/western-union" transform="translate(32.000000, 3932.000000)">
                <rect id="Background" fill="#000000" x="0" y="0" width="200" height="120" rx="8"></rect>
                <g id="Logo" transform="translate(20.000000, 44.000000)" fill="#F8D837">
                    <g id="path6">
                        <path d="M51.1560694,0 C46.5190751,0 43.8728416,1.80928984 43.8728324,4.98864575 C43.8728324,6.95957886 44.7283329,8.38649876 47.1676301,9.08546656 L51.6184971,10.3395954 C52.2127168,10.5090421 52.6878705,10.8267547 52.6878613,11.3986375 C52.6878613,12.0775392 52.0797688,12.6527663 51.1560694,12.6527663 C50.5630058,12.6527663 50.1849526,12.4476466 49.9421965,12.1511148 C49.700578,11.8334021 49.5953757,11.4042114 49.5953757,10.9805945 L43.583815,10.9805945 C43.583815,14.9648225 47.1005595,16.1085879 50.9248555,16.1085879 C55.4080925,16.1085879 58.5549318,14.5367465 58.5549133,10.7855078 C58.5549133,8.94165979 57.6924855,7.57716763 55.6936416,6.77229562 C54.0890173,6.11568951 51.8739977,5.6898431 50.6647399,5.35094963 C50.0046243,5.16032205 49.6242775,4.926218 49.6242775,4.3755161 C49.6242775,3.90842279 50.0578312,3.48369116 51.0693642,3.48369116 C51.8820809,3.48369116 52.4347098,3.81143683 52.4566474,4.76568951 L58.0924855,4.76568951 C58.0924855,1.20507845 55.1121387,1.58419933e-15 51.1560694,1.58419933e-15 L51.1560694,0 Z M137.803468,0.111478117 L137.803468,34.0844344 L139.797688,34.0844344 L139.797688,0.111478117 L137.803468,0.111478117 L137.803468,0.111478117 Z M157.890173,0.222956235 C156.717919,0.222956235 155.751436,1.13819158 155.751445,2.25743187 C155.751445,3.38781998 156.717928,4.29190751 157.890173,4.29190751 C159.056647,4.29190751 159.999982,3.38781998 160,2.25743187 C160,1.13819158 159.056657,0.222956235 157.890173,0.222956235 L157.890173,0.222956235 Z M0,0.41804294 L3.43930636,15.7184145 L10.2601156,15.7184145 L11.734104,5.7968621 L11.7630058,5.7968621 L13.2369942,15.7184145 L20.0578035,15.7184145 L23.4971098,0.41804294 L17.8612717,0.41804294 L16.5317919,10.0330306 L16.4739884,10.0330306 L15,0.41804294 L8.49710983,0.41804294 L7.02312139,10.0330306 L6.99421965,10.0330306 L5.63583815,0.41804294 L0,0.41804294 L0,0.41804294 Z M27.3410405,0.41804294 L27.3410405,15.7184145 L39.5953757,15.7184145 L39.5953757,11.7330718 L33.3526012,11.7330718 L33.3526012,10.005161 L38.9306358,10.005161 L38.9306358,6.01981833 L33.3526012,6.01981833 L33.3526012,4.40338563 L39.3930636,4.40338563 L39.3930636,0.41804294 L27.3410405,0.41804294 L27.3410405,0.41804294 Z M62.1387283,0.41804294 L62.1387283,4.51486375 L66.0693642,4.51486375 L66.0693642,15.7184145 L72.3410405,15.7184145 L72.3410405,4.51486375 L76.2716763,4.51486375 L76.2716763,0.41804294 L62.1387283,0.41804294 L62.1387283,0.41804294 Z M80.5202312,0.41804294 L80.5202312,15.7184145 L92.8034682,15.7184145 L92.8034682,11.7330718 L86.5606936,11.7330718 L86.5606936,10.005161 L92.1387283,10.005161 L92.1387283,6.01981833 L86.5606936,6.01981833 L86.5606936,4.40338563 L92.6011561,4.40338563 L92.6011561,0.41804294 L80.5202312,0.41804294 L80.5202312,0.41804294 Z M97.4566474,0.41804294 L97.4566474,15.7184145 L103.612717,15.7184145 L103.612717,10.2559868 L104.33526,10.2559868 C105.345665,10.2559868 105.73526,10.5525186 105.867052,11.3150289 C106.086705,12.6293559 106.274007,14.5735343 106.647399,15.7184145 L112.803468,15.7184145 C112.078613,13.4074732 112.143334,11.2347647 111.791908,9.92155244 C111.484393,8.75549133 110.641591,8.09777044 109.104046,7.97068538 L109.104046,7.94281585 C111.477457,7.39099917 112.254345,6.0510322 112.254335,4.29190751 C112.254335,1.4090834 110.256657,0.41804294 106.849711,0.41804294 L97.4566474,0.41804294 L97.4566474,0.41804294 Z M117.196532,0.41804294 L117.196532,15.7184145 L122.283237,15.7184145 L122.283237,6.38212221 L122.34104,6.38212221 L125.693642,15.7184145 L133.236994,15.7184145 L133.236994,0.41804294 L128.121387,0.41804294 L128.121387,9.67072667 L128.092532,9.67072667 L124.739931,0.41804294 L117.196578,0.41804294 L117.196532,0.41804294 Z M152.023121,0.41804294 L152.023121,34.0286953 L154.017341,34.0286953 L154.017341,0.41804294 L152.023121,0.41804294 L152.023121,0.41804294 Z M157.890173,0.473781998 C158.916763,0.473781998 159.653207,1.26750619 159.653179,2.25743187 C159.653179,3.25850537 158.916772,4.01321222 157.890173,4.01321222 C156.857803,4.01321222 156.098238,3.25850537 156.098266,2.25743187 C156.098266,1.26750619 156.857813,0.473781998 157.890173,0.473781998 L157.890173,0.473781998 Z M157.109827,1.11478117 L157.109827,3.40008258 L157.398844,3.40008258 L157.398844,2.34104046 L157.919075,2.34104046 L158.583815,3.40008258 L158.930636,3.40008258 L158.236994,2.34104046 C158.655491,2.32989265 158.959556,2.17493807 158.959538,1.72791082 C158.959538,1.35222956 158.746812,1.11478117 158.121387,1.11478117 L157.109827,1.11478117 L157.109827,1.11478117 Z M157.398844,1.30986788 L158.063584,1.30986788 C158.353757,1.30986788 158.641609,1.34554088 158.641618,1.70004129 C158.641618,2.16379026 158.166474,2.11808423 157.83237,2.11808423 L157.398844,2.11808423 L157.398844,1.30986788 L157.398844,1.30986788 Z M103.612717,3.9017341 L104.190751,3.9017341 C105.421965,3.9017341 106.213864,4.11688687 106.213873,5.23947151 C106.213873,6.38435178 105.342197,6.80016515 104.132948,6.80016515 L103.612717,6.80016515 L103.612717,3.9017341 L103.612717,3.9017341 Z M104.248555,18.3102808 C98.7757225,18.3102808 96.0404624,21.5966557 96.0404624,26.3645747 C96.0404624,31.1336086 98.775704,34.4188687 104.248555,34.4188687 C109.721387,34.4188687 112.427764,31.1336086 112.427746,26.3645747 C112.427746,21.5966557 109.721369,18.3102808 104.248555,18.3102808 L104.248555,18.3102808 Z M43.3526012,18.7004542 L43.3526012,28.8728324 C43.3526012,32.5605285 46.104074,34.4188687 50.8959538,34.4188687 C55.6867052,34.4188687 58.4393064,32.5605285 58.4393064,28.8728324 L58.4393064,18.7004542 L52.1387283,18.7004542 L52.1387283,28.6220066 C52.1387283,29.8293146 51.554941,30.2941784 50.8959538,30.2941784 C50.2369942,30.2941784 49.6531884,29.8293146 49.6531792,28.6220066 L49.6531792,18.7004542 L43.3526012,18.7004542 L43.3526012,18.7004542 Z M63.6416185,18.7004542 L63.6416185,34.0008258 L68.7572254,34.0008258 L68.7572254,24.692403 L68.7861272,24.692403 L72.1387283,34.0008258 L79.6820809,34.0008258 L79.6820809,18.7004542 L74.5953757,18.7004542 L74.5953757,27.9810074 L74.5375723,27.9810074 L71.1849711,18.7004542 L63.6416185,18.7004542 L63.6416185,18.7004542 Z M85,18.7004542 L85,34.0008258 L91.300578,34.0008258 L91.300578,18.7004542 L85,18.7004542 L85,18.7004542 Z M117.196532,18.7004542 L117.196532,34.0008258 L122.283237,34.0008258 L122.283237,24.692403 L122.34104,24.692403 L125.693642,34.0008258 L133.236994,34.0008258 L133.236994,18.7004542 L128.121387,18.7004542 L128.121387,27.9810074 L128.092532,27.9810074 L124.739931,18.7004542 L117.196578,18.7004542 L117.196532,18.7004542 Z M104.248555,22.2956235 C105.260116,22.2956235 105.924874,22.9109827 105.924855,26.3645747 C105.924855,29.904005 105.21501,30.4335171 104.248555,30.433526 C103.282081,30.433526 102.543353,29.904005 102.543353,26.3645747 C102.543353,22.9109827 103.238132,22.2956235 104.248555,22.2956235 L104.248555,22.2956235 Z"></path>
                    </g>
                </g>
            </g>
        </g>
    </g>
</svg>